/* XPM */
static char *result[] = {
/* columns rows colors chars-per-pixel */
"58 64 226 2 ",
"   c #000000",
".  c #00000B",
"X  c #1A0302",
"o  c #060316",
"O  c #17041B",
"+  c #1F1117",
"@  c #240708",
"#  c #29160A",
"$  c #250617",
"%  c #260A16",
"&  c #2A0916",
"*  c #260A19",
"=  c #2C0B19",
"-  c #340717",
";  c #330D1C",
":  c #3A0E1D",
">  c #28141E",
",  c #37101C",
"<  c #000024",
"1  c #00002B",
"2  c #1A0122",
"3  c #000035",
"4  c #00003D",
"5  c #0E1C31",
"6  c #25062B",
"7  c #25052C",
"8  c #29062F",
"9  c #3B0E21",
"0  c #390E28",
"q  c #3A1926",
"w  c #2C0531",
"e  c #270C34",
"r  c #320336",
"t  c #360039",
"y  c #3A0639",
"u  c #35083A",
"i  c #3B093E",
"p  c #2D1533",
"a  c #321A36",
"s  c #342627",
"d  c #3B252D",
"f  c #292539",
"g  c #3D2531",
"h  c #31263F",
"j  c #36263C",
"k  c #3A293D",
"l  c #42000C",
"z  c #5F350D",
"x  c #431632",
"c  c #571E34",
"v  c #472938",
"b  c #572F3D",
"n  c #5A3C39",
"m  c #6D3537",
"M  c #6F4F3C",
"N  c #000044",
"B  c #00014C",
"V  c #001243",
"C  c #001B42",
"Z  c #041B47",
"A  c #0B1B51",
"S  c #200F46",
"D  c #3E0141",
"F  c #3E0A42",
"G  c #251B49",
"H  c #3E1943",
"J  c #260053",
"K  c #34005B",
"L  c #002245",
"P  c #1A2747",
"I  c #072953",
"U  c #012A54",
"Y  c #183255",
"T  c #242643",
"R  c #2C2344",
"E  c #2B234B",
"W  c #312741",
"Q  c #332943",
"!  c #3A2B41",
"~  c #362E48",
"^  c #37314A",
"/  c #3A324C",
"(  c #3D2B58",
")  c #2B3558",
"_  c #353556",
"`  c #3C3653",
"'  c #3E3A57",
"]  c #3E3B5A",
"[  c #430B45",
"{  c #480E45",
"}  c #4A044C",
"|  c #460C49",
" . c #4C0D4E",
".. c #491947",
"X. c #4D0750",
"o. c #4E0D51",
"O. c #500A52",
"+. c #4E1450",
"@. c #511C53",
"#. c #4A2648",
"$. c #4D2A4F",
"%. c #453846",
"&. c #523743",
"*. c #562858",
"=. c #433B56",
"-. c #473C57",
";. c #423C59",
":. c #563959",
">. c #71344E",
",. c #421D62",
"<. c #563965",
"1. c #613F62",
"2. c #37435F",
"3. c #484155",
"4. c #46425B",
"5. c #49455D",
"6. c #5A4F53",
"7. c #71484E",
"8. c #694C55",
"9. c #784557",
"0. c #605758",
"q. c #7F6C52",
"w. c #474868",
"e. c #584769",
"r. c #5B4C76",
"t. c #735470",
"y. c #64606A",
"u. c #6C6877",
"i. c #756F76",
"p. c #79727B",
"a. c #A83B00",
"s. c #A21822",
"d. c #823A36",
"f. c #D01E21",
"g. c #DA2629",
"h. c #F82425",
"j. c #985B04",
"k. c #B44F00",
"l. c #BC5A1E",
"z. c #BC6E0D",
"x. c #9E4D2C",
"c. c #854336",
"v. c #954C33",
"b. c #81503D",
"n. c #89553A",
"m. c #965737",
"M. c #9A5D35",
"N. c #A95A2C",
"B. c #B65B26",
"V. c #BC6323",
"C. c #B3622A",
"Z. c #B0692F",
"A. c #B5692C",
"S. c #BD722C",
"D. c #A26133",
"F. c #BE7337",
"G. c #CA6D00",
"H. c #C97607",
"J. c #D47D18",
"K. c #C66E24",
"L. c #C16A28",
"P. c #CA7525",
"I. c #CC7A25",
"U. c #C67629",
"Y. c #D27C23",
"T. c #C77A34",
"R. c #82335C",
"E. c #86514E",
"W. c #8C5B4D",
"Q. c #92744B",
"!. c #B86F4C",
"~. c #88466C",
"^. c #885777",
"/. c #A66276",
"(. c #AB8232",
"). c #CF8D00",
"_. c #CF8D2C",
"`. c #D28523",
"'. c #D19E4F",
"]. c #D8AA74",
"[. c #797584",
"{. c #976384",
"}. c #827083",
"|. c #997582",
" X c #A66F96",
".X c #88858B",
"XX c #8E8C94",
"oX c #938A9B",
"OX c #99959A",
"+X c #99979A",
"@X c #AAA090",
"#X c #968FA1",
"$X c #9E98A2",
"%X c #A29EA9",
"&X c #B99BAE",
"*X c #A7A0A4",
"=X c #A9A6AA",
"-X c #AAA8AB",
";X c #AFADB0",
":X c #B8B7B9",
">X c #DCB098",
",X c #E0AF83",
"<X c #C0B6B9",
"1X c #E4C8AE",
"2X c #E8D5BC",
"3X c #BAB8C5",
"4X c #C4C2C4",
"5X c #C7C6CA",
"6X c #C8C3C8",
"7X c #CCCCCD",
"8X c #D0CFD0",
"9X c #D3D4D7",
"0X c #D5D2D8",
"qX c #DBDADC",
"wX c #F0D8CC",
"eX c #E2DDDE",
"rX c #DEDCE1",
"tX c #E0DFE0",
"yX c #E5E4E6",
"uX c #E8E6E8",
"iX c #EDEDEE",
"pX c #F6EEE5",
"aX c #EFEEF0",
"sX c #F0EEF0",
"dX c #F4F4F4",
"fX c #FFFFFF",
/* pixels */
"fXfXfXfXfXfXfXfXfXfXfXfXfXfXfXfXfXfXfXfXfXfXfXfXfXfXfXfXfXfXfXfXfXfXfXfXfXfXfXfXfXfXfXfXfXfXfXfXfXfXfXfX6XfXfXfXfXfX",
"fXfXfXfXfXfXfXfXfXfXfXfXfXfXfXfXfXfXfXfXfXfXfXfXfXfXfXfXfXfXfXfXfXfXfXfXfXfXfXfXfXfXfXfXfXfXfXfXfXfXfXfXqXfXfXfXfXfX",
"fXfXfXfXfXfXfXfXfXfXfXfXfXfXfXfXfXfXfXfXfXfXfXfXfXfXfXfXfXfXfXfXfXfXfXfXfXfXfXfXfXfXfXfXfXfXfXfXfXfXfXfXfXfXfXfXfXfX",
"fXfXfXfXfXfXfXfXfXfXfXfXfXfXfXfXfXfXfXfXfXfXfXfXfXfXfXfXfXfXfXfXfXfXfXfXfXfXfXfXfXfXfXfXfXfXfXfXfXfXfXfXfXfXfXfXfXfX",
"fXfXfXfXfXfXfXfXfXfXfXfXfXfXfXfXfXfXfXfXfXfXfXfXfXfXfXfXfXfXfXfXfXfXfXfXfXfXfXfXfXfXfXfXfXfXfXfXfXfXfXfXfXfXfXfXfXfX",
"fXfXfXfXfXfXfXfXfXfXfXfXfXfXfXfXfXfXfXfXfXfXfXfXfXfXfXfXfXfXfXfXfXfXfXfXfXfXfXfXfXfXfXfXfXfXfXfXfXfXfXfXfXfXfXfXfXfX",
"fXfXfXfXfXfXfXfXfXfXfXfXfXfXfXfXfXfXfXfXfXfXfXfXfXfXfXfXfXfXfXfXfXfXfXfXfXfXfXyXyXyXyXyXfXfXfXfXfXfXfXfXfXfXfXfXfXfX",
"fXfXfXfXfXfXfXfXfXfXfXfXfXfXfXfXfXfXfXfXfXfXfXfXfXfXfXfXfXfXOXiXfXfXfXfXfXfXdX7 r r w   =XfXfXfXfXfXfXfXfXfXfXfXfXfX",
"fXfXfXfXfXfXfXfXfXfXfXfXfXfXfXfXfXfXfXfXfXfXfXfXfXfXfXfX4X2 OX-XfXfXfXfXfXe.1.*.w w .     fXfXfXfXfXfXfXfXfXfXfXfXfX",
"fXfXfXfXfXfXfXfXfXfXfXfXfXfXfXfXfXfXfXfXfXfXfXfXfXfXfXfXqXyXfXfXfXfXfXfXaXD } r i.i.i.i.yXfXfXfXfXfXtXfXfXfXfXfXfXfX",
"fXfXfXfXfXfXfXfXfXfXfXfXfXfXfXfXfXfXfXfXfXfXfXfXfXfXfXfXfXfXfXfXfXfXfXfXt [ H p fXfXfXfXfXfXfXfXfXfX5XfXfXfXfXfXfXfX",
"fXfXfXfXfXfXfXfXfXfXfXfXfXfXfXfXfXfXfXfXfXfXfXfXfXfXfXfXfXfXfXfXfXfXfXfX@.r 6   fXfXfXfXfXfXfXfXqXqXuXfXfXfXfXfXfXfX",
"fXfXfXfXfXfXfXfXfXfXfXfXfXfXfXfXfXfXfXfXfXfXfXfXfXfXfXfXfXfXfXfXdXdXOXOX| 7 w p.fXfXfXfXfXfXfXOXo 6   fXfXfXfXfXfXfX",
"fXfXfXfXfXfXfXfXfXfXfXfXfXfXfXfXfXfXfXfXfXfXfXfXfXfXfXfXfXfX6X6X . .2 O F w w 4X4XfXfXfXfX4X4X  :.7 #.fXfXfXfXfXfXfX",
"fXfXfXfXfXfXfXfXfXfXfXfXfXfXfXfXfXfXfXfXfXfXfXfXfXfXfXfXuX}.    } } *.*.| 7 7     p.i.}.i.    j 7XdX7 fXfXfXfXfXfXfX",
"fXfXfXfXfXfXfXfXfXfXfXfXfXfXfXfXfXfXfXfXfXfXfXfXfXfXfX-X  7 :.*. .+. .i 7 w F $.*.t t t t *.$.u O ;X7 fXfXfXfXfXfXfX",
"fXfXfXfXfXfXfXfXfXfXfXfXfXfXfXfXfXfXfXfXfXfXfXfXfXfXfXdX=X    w w 6 w 6 7  .[ o.o.@.@.@.@. .+.[ p   w 7XfXfXfXfXfXfX",
"fXfXfXfXfXfXfXfXfXfXfXfXfXfXfXfXfXfXfXfXfXfXfXfXfXfXfXfXfXyXyX8 w | w 7 u o.o.v  . .0  .o.o.o.6 8 j 7 4XfXfXfXfXfXfX",
"fXfXfXfXfXfXfXfXfXfXfXfXfXfXfXfXfXfXfXfXfXfXfXfXfXfXfXfXfXfXfX7 8 +.7 F o. .o.q : - %  . . .y 6 w w w %.:XfXfXfXfXfX",
"fXfXfXfXfXfXfXfXfXfXfXfXfXfXfXfXfXfXfXfXfXfXfXfXfXfXfXfXfXfX6.u | o.u o. .o.[ 9 ; q v .. .o.u y 7 7 7 7   y.fXeX0XfX",
"fXfXfXfXfXfXfXfXfXfXfXfXfXfXfXfXfXfXfXfXfXfXfXfXfXfXfXfXfXOXt o.o. .o.o.o. ., 9 % v v v  .X.o.o.[ [ w 8 !   dXo   OX",
"fXfXfXfXfXfXfXfXfXfXfXfXfXfXfXfXfXfXfXfXfXfXfXfXfXfXfXfX4X  @. .o.o.o. .+.9 9 % %  .v g v #.o. .o.o.o.8 7 :X  *.*.  ",
"fXfXfXfXfXfXfXfXfXfXfXfXfXfXfXfXfXfXfXfXfXfXfXfXfXfXfXyX  *. . . .o.o. .{ 9 9 = | o.o.g d v  .o.o.o.[ 8 k fX.X[  .%.",
"fXfXfXfXfXfXfXfXfXfXfXfXfXfXfXfXfXfXfXfXfXfXfXfXfXfXfX  %.@.o.o. .o. .| 9 9 9 9 o.o.X.g g d  . .o.o.8 8   fXfXF @.  ",
"fXfXfXfXfXfXfXfXfXfXfXfXfXfXfXfXfXfXfXfXfXfXfXfXfXfXfX=X    $.$.o.F i F % 9 9 9 x O...g g x o. . . .o.8 ;XfXfX*.  =X",
"fXfXfXfXfXfXfXfXfXfXfXfXfXfXfXfXfXfXfXfXfXfXfXfXfXfXfXfXyXi.    u | i F [ X = , : x d g k O. . .o. . .8 dXsXXX  i.fX",
"fXfXfXfXfXfXfXfXfXfXfXfXfXfXfXfXfXfXfXfXfXfXfXfXfXfXfXfXfXfX4X8X6 [ +. . .i * ; ; : 9 q X. . . .o. .8 p     . 4XfXfX",
"fXfXfXfXfXfXfXfXfXfXfXfXfXfXfXfXfXfXfXfXfXfXfXfXfXfXfXfXfXfXfXuX8 2 o.o.O...k o * * 9 9 u  . . .[ r 8 .   OXdXfXfXfX",
"fXfXfXfXfXfXfXfXfXfXfXfXfXfXfXfXfXfXfXfXfXfXfXfXfXfXfXfXfXdXXX  w |  . .v v c f.* % % = ,  .o.o.6 8 p 0.0XfXfXfXfXfX",
"fXfXfXfXfXfXfXfXfXfXfXfXfXfXfXfXfXfXfXfXfXfXfXfXfXfXfXfXfXk   $. .o. .o.v v h.h.% % % % 9 o.o.F 8 p   fXfXfXfXfXfXfX",
"fXfXfXfXfXfXfXfXfXfXfXfXfXfXfXfXfXfXfXfXfXfXfXfXfXfXfXfXfX  %.| o.o.o.{ d d g.h.: * * % @ +.o.7 k 2 iXfXfXfXfXfXfXfX",
"fXfXfXfXfXfXfXfXfXfXfXfXfXfXfXfXfXfXfXfXfXfXfXfXfXfXfXfXfX7X  a .. .i 6 d d 5 s.; & * % [ F i a   %.fXfXfXfXfXfXfXfX",
"fXfXfXfXfXfXfXfXfXfXfXfXfXfXfXfX0X0X0X0XfXfXfXfXfXfXfXfXfXfX=X    k  . .i x : o % + @ 6 [ 6 j   =XfXfXfXfXfXfXfXfXfX",
"fXfXfXfXfXfXfXfXfXfXfXfXfXfXaX#XK J J J oXaXfXfXfXfXfXfXfXfXfXyXi.  r | *.s % - q v g $.D 7   i.fXfXfXfXfXfXfXfXfXfX",
"fXfXfXfXfXfXfXfXfXfXfXfXfXfX<.,.e.2.w.5.N ( fXfXfXfXfXfXfXfXdXfXfX4X8 e     % %   O O   w e 4XfXfXfXfXfXfXfXfXfXfXfX",
"fXfXfXfXfXfXfXfXfXfXfXfXfXqXr.4._ 7.B.N.s ;.fXfXfXfXfXfXfXfXfXfXfXfXdXdX+X*X; , %XOXOXOXdXdXfXfXfXfXfXfXfXfXfXfXfXfX",
"fXfXfXfXfXfXfXfXfXfXfXfXfXK r.=.;.Y.V.V.+ f $XfXfXfXfXfXfXfXfXfXfXfXfXfXfX:X= ; :XfXfXfXfXfXfXfXfXfXfXfXfXfXfXfXfXfX",
"fXfXfXfXfXfXfXfX2X2X1XwX5Xr.) ) h j.I.Y.> + B fXfXfXfXfXfXfXfXfXfXfXfXfXfXdX- > dXfXfXfXfXfXfXfXfXfXfXfXfXfXfXfXfXfX",
"fXfXfXfXfXfXfXfXuX].,Xa.k.F.7.S.=.t.n z # # q.pX].'.1XfXfXfXfXfXfXfXfXfXfXfXx X fXfXfXfXfXfXfXfXfXfXfXfXfXfXfXfXfXfX",
"fXfXfXfXfXfXfXfXfXdX3Xw.W.J.Y.`.!.^.( Z L V _.).H.wXfXfXfXfXfXfXfXfXfXfXfXfX> v fXfXfXfXfXfXfXfXfXfXfXfXfXfXfXfXfXfX",
"fXfXfXfXfXfXfXfXfXt.1 3.1 m.x.U.J.H._.W.W.Q.Q.Y._.rXfXfXfXfXfXfXfXfXfXfXfX7.- dXfXfXfXfXfXfXfXfXfXfXfXfXfXfXfXfXfXfX",
"fXfXfXfXfXfXfXfX#X;.w.  [.  C A.b.S.`.J.J.J.I.I.B.  XXXXaXiXiXiXuXiXiXiX&X^.^.fXfXfXfXfXfXfXfXfXfXfXfXfXfXfXfXfXfXfX",
"fXfXfXfXfXfXfX3X4 ' =.4XfX6X! ^ P.j d.m c.d.B.Y.P %.      R E E E E G G R.{.{.fXfXfXfXfXfXfXfXfXfXfXfXfXfXfXfXfXfXfX",
"fXfXfXfXfXfX[.3 4.4.  fXfXfXdX  8.v.z.M U Y &.A.dXdX+X+X+X  e e R R 5.5.-.t.>.fXfXfXfXfXfXfXfXfXfXfXfXfXfXfXfXfXfXfX",
"fXfXfXfXfX%XE 5.^   qXfXfXfXfX9X  P /.L.0.3.] I fXfXfXfXfXqXy.y.y.y.    ~ $ 6.fXfXfXfXfXfXfXfXfXfXfXfXfXfXfXfXfXfXfX",
"fXfXfXfXfX3 ;./ h :XfXfXfXfXfXfX:X~ ] _ _.A 3.=.fXfXfXfXfXfXfXfXfXfX:X:X- ; fXfXfXfXfXfXfXfXfXfXfXfXfXfXfXfXfXfXfXfX",
"fXfXfXfX[.4.] h Q fXfXfXfXfXfXpX@X_ ' =.J.M A =.].fXfXfXfXfXfXfXfXfXfXfXx 0 fXfXfXfXfXfXfXfXfXfXfXfXfXfXfXfXfXfXfXfX",
"fXfXfXfXS =.] ! h dXfXfXfXfXfXz.).v %.I E._.(.V G.fXfXfXfXfXfXfXfXfXfXfXm = fXfXfXfXfXfXfXfXfXfXfXfXfXfXfXfXfXfXfXfX",
"fXfXfXfX] ) 5 f ! fXfXfXfXfX8XH v.K.I.n.U P.`.n.T.fXfXfXfXfXfXfXfXfXfXfXc d fXfXfXfXfXfXfXfXfXfXfXfXfXfXfXfXfXfXfXfX",
"fXfXfXfX<.{.{.:.5 fXfXfXfXiX1 ' C m C.I.S.I.U.`.m..XfXfXfXfXfXfXfXfXfXfX%   fXfXfXfXfXfXfXfXfXfXfXfXfXfXfXfXfXfXfXfX",
"fXfXfXfX X X{.{.^.fXfXfXfXG 5.;.! T C K.K.I.Y.I.K.  fXfXfXfXfXfXfXfXfX<X* 4XfXfXfXfXfXfXfXfXfXfXfXfXfXfXfXfXfXfXfXfX",
"fXfXfXfX~.~.E.9.>.fXfXqXu.4.=.` ! C I.N.x.l.K.U.x.^ fXfXfXfXfXfXfXfXfXl : fXfXfXfXfXfXfXfXfXfXfXfXfXfXfXfXfXfXfXfXfX",
"fXfXfXfXeX|.|.|.eXpX>X@ B U Z W C Z.b.I Y l.l.l.L ! fXfXfXfXfXfXfXfXfX>.: fXfXfXfXfXfXfXfXfXfXfXfXfXfXfXfXfXfXfXfXfX",
"fXfXfXfXfXfXfXfXfX1XG.T.M.M.D.L m.Y.Y ;.;.B.v.v.! W fXfXfXfXfXfXfXfXfXc 9 fXfXfXfXfXfXfXfXfXfXfXfXfXfXfXfXfXfXfXfXfX",
"fXfXfXfXfXfXfXfXfXfX8.8.T.S.K.U.Y.I.=.' ' I.Y Y ` W fXfXfXfXfXfXfXfXfX& X fXfXfXfXfXfXfXfXfXfXfXfXfXfXfXfXfXfXfXfXfX",
"fXfXfXfXfXfXfXfXfX%X) ) U C N m.Y.I.^ ' ' I.=.;.^ W fXfXfXfXfXfXfXfXdX% %.fXfXfXfXfXfXfXfXfXfXfXfXfXfXfXfXfXfXfXfXfX",
"fXfXfXfXfXfXfXfX0X1 =.;./ ! m.S.M.W k ] ;.I.' ' W W fXfXfXfXfXfXfXfX9.* fXfXfXfXfXfXfXfXfXfXfXfXfXfXfXfXfXfXfXfXfXfX",
"fXfXfXfXfXfXiXXX< 5.' ' Q Q V.Y.Z.M V Q ` V.' ] W W fXfXfXfXfXfXfXfXl = fXfXfXfXfXfXfXfXfXfXfXfXfXfXfXfXfXfXfXfXfXfX",
"fXfXfXfXfXfXG 4 w.' =.=.] ' C c.v.K.D.Q W B.;._ ! W fXfXfXfXfXfXfXfX, > fXfXfXfXfXfXfXfXfXfXfXfXfXfXfXfXfXfXfXfXfXfX",
"fXfXfXfXfXu.4.4.=.' ` ] ' ' ! C Z v N.K.U.W T a ! ! fXfXfXfXfXfXfXfX9   fXfXfXfXfXfXfXfXfXfXfXfXfXfXfXfXfXfXfXfXfXfX",
"fXfXfXfX$XE ] ' ' ;.] ;.] ^ W ! ! T C m V.A.n &.V V fXfXfXfXfXfXfXdX9 0.fXfXfXfXfXfXfXfXfXfXfXfXfXfXfXfXfXfXfXfXfXfX",
"fXfXfXfX4 ;.;.;.] / ] ^ / ' ] ;.;.;.%.Y G m.K.I.M.M.fXfXfXfXfXfXfX; * fXfXfXfXfXfXfXfXfXfXfXfXfXfXfXfXfXfXfXfXfXfXfX",
"fXfXfX[.-.;.` ` Q W Q ~ ~ ] ;.;.` ` ` =./ U b N.C.B.fXfXfXfXfXfXfX$ * fXfXfXfXfXfXfXfXfXfXfXfXfXfXfXfXfXfXfXfXfXfXfX",
"fXfX=Xo h ^ h W W W W / ^ ^ ^ ^ h h h h Q k T C C C fXfXfXfXfXfXfX; % fXfXfXfXfXfXfXfXfXfXfXfXfXfXfXfXfXfXfXfXfXfXfX"
};
