/* XPM */
static char *result[] = {
/* columns rows colors chars-per-pixel */
"64 64 245 2 ",
"   c #000000",
".  c #00000D",
"X  c #190300",
"o  c #010215",
"O  c #00011B",
"+  c #070319",
"@  c #13001C",
"#  c #270307",
"$  c #270917",
"%  c #260B16",
"&  c #2C0B1A",
"*  c #320818",
"=  c #350D1C",
"-  c #3A0E1E",
";  c #36151C",
":  c #000024",
">  c #00002C",
",  c #09002F",
"<  c #1C0024",
"1  c #0E112E",
"2  c #000031",
"3  c #00003C",
"4  c #25042C",
"5  c #29052E",
"6  c #28092B",
"7  c #3B0E22",
"8  c #320A2B",
"9  c #2B1528",
"0  c #391725",
"q  c #270530",
"w  c #2C0532",
"e  c #2B0B31",
"r  c #310436",
"t  c #350539",
"y  c #39033C",
"u  c #370B39",
"i  c #2E1533",
"p  c #25183B",
"a  c #321736",
"s  c #341D39",
"d  c #2A2627",
"f  c #3B252C",
"g  c #38282E",
"h  c #2A243E",
"j  c #3E2432",
"k  c #392836",
"l  c #33243C",
"z  c #33293E",
"x  c #4D0006",
"c  c #780700",
"v  c #74111D",
"b  c #4E0629",
"n  c #440B3E",
"m  c #4C2427",
"M  c #422632",
"N  c #482A39",
"B  c #46373E",
"V  c #56373F",
"C  c #753737",
"Z  c #6B4E00",
"A  c #77493A",
"S  c #714D3A",
"D  c #000247",
"F  c #0F0548",
"G  c #001942",
"H  c #3F0842",
"J  c #2F0B51",
"K  c #032244",
"L  c #032248",
"P  c #172544",
"I  c #002657",
"U  c #0D3052",
"Y  c #193559",
"T  c #292746",
"R  c #322B43",
"E  c #3C2D43",
"W  c #382B47",
"Q  c #2A354A",
"!  c #303043",
"~  c #36314A",
"^  c #3B344C",
"/  c #273557",
"(  c #3B3652",
")  c #343856",
"_  c #3E3A56",
"`  c #343959",
"'  c #3D3D5A",
"]  c #420345",
"[  c #460748",
"{  c #4B014D",
"}  c #4C0A4E",
"|  c #481847",
" . c #4E0550",
".. c #4E0951",
"X. c #510853",
"o. c #4E1D50",
"O. c #521A54",
"+. c #492547",
"@. c #453747",
"#. c #5A3944",
"$. c #4F2557",
"%. c #562A58",
"&. c #423B54",
"*. c #4A3953",
"=. c #413D59",
"-. c #59355A",
";. c #6D344A",
":. c #410C62",
">. c #5F3D61",
",. c #673B62",
"<. c #3A425A",
"1. c #304662",
"2. c #49454A",
"3. c #534549",
"4. c #47455A",
"5. c #4A455C",
"6. c #574557",
"7. c #5F595B",
"8. c #764748",
"9. c #704F4D",
"0. c #65595D",
"q. c #4C4860",
"w. c #534C66",
"e. c #5B5766",
"r. c #50526D",
"t. c #654C6E",
"y. c #68576B",
"u. c #795874",
"i. c #6A646A",
"p. c #7F696F",
"a. c #6F6270",
"s. c #6E6971",
"d. c #77687B",
"f. c #7B777B",
"g. c #8D141B",
"h. c #8D2300",
"j. c #A11923",
"k. c #D62428",
"l. c #F92525",
"z. c #9C5411",
"x. c #B75300",
"c. c #B85A1E",
"v. c #B36C15",
"b. c #834A3A",
"n. c #954C31",
"m. c #935834",
"M. c #955937",
"N. c #AC582B",
"B. c #A95A32",
"V. c #B9662A",
"C. c #BF732D",
"Z. c #A76433",
"A. c #B56B37",
"S. c #BD7237",
"D. c #C34B00",
"F. c #CC7207",
"G. c #D17300",
"H. c #C5661B",
"J. c #CB7318",
"K. c #C46D24",
"L. c #C56E2F",
"P. c #C77024",
"I. c #CB7425",
"U. c #CD7A26",
"Y. c #C4742C",
"T. c #D37D23",
"R. c #D17A29",
"E. c #C47834",
"W. c #CE7933",
"Q. c #823560",
"!. c #84554A",
"~. c #8C534D",
"^. c #9A6146",
"/. c #AC6C4E",
"(. c #834A68",
"). c #895A74",
"_. c #8F5974",
"`. c #90697A",
"'. c #AA706D",
"]. c #B58736",
"[. c #B48831",
"{. c #D5860D",
"}. c #CF8D29",
"|. c #A5855E",
" X c #D7AA63",
".X c #796780",
"XX c #985785",
"oX c #9C6B8A",
"OX c #847688",
"+X c #A97098",
"@X c #84828B",
"#X c #8B838C",
"$X c #89878D",
"%X c #898A92",
"&X c #938C95",
"*X c #909095",
"=X c #969396",
"-X c #95949A",
";X c #9A959B",
":X c #A89299",
">X c #8586A0",
",X c #9D99A2",
"<X c #A39BA4",
"1X c #A899AA",
"2X c #B391A7",
"3X c #9BA1AB",
"4X c #AAA5AB",
"5X c #A9A7AB",
"6X c #AFABB2",
"7X c #B2ADB3",
"8X c #B6B3B7",
"9X c #BDBABC",
"0X c #DAAB94",
"qX c #D8B797",
"wX c #C1A1B7",
"eX c #C4BBBA",
"rX c #E7BCA3",
"tX c #DFC4AA",
"yX c #E8CBB2",
"uX c #BDBDC3",
"iX c #C1BDC3",
"pX c #C4C3C5",
"aX c #C5C2C9",
"sX c #CAC6CA",
"dX c #CBC9CC",
"fX c #D3CDCF",
"gX c #CFCCD3",
"hX c #D2CED2",
"jX c #D4D2D5",
"kX c #D9D6D9",
"lX c #DBDADC",
"zX c #E7D8CE",
"xX c #DEDDE0",
"cX c #E2DEE0",
"vX c #E4E3E4",
"bX c #EAE6EA",
"nX c #EDEBED",
"mX c #F4EDE8",
"MX c #F7F3EA",
"NX c #FAF3EC",
"BX c #F1EFF0",
"VX c #EFF0F3",
"CX c #F4F3F4",
"ZX c #F9F8F7",
"AX c #FFFFFF",
/* pixels */
"AXAXAXAXAXAXAXAXAXAXAXAXAXAXAXAXAXAXAXsXiXAXAXAXAXAX9X&XnXAXAXAXAXAXAXAXAXAXAXAXAXAXAXAXAXAXAXAXAXAXAXAXAXAXAXAXAXAXAXAXAXAXAXAX",
"AXAXAXAXAXAXAXAXAXAXAXAXAXAXAXAXkXZXAXhX%.;XAXAXAXAX6.  <XBXAXAXAXAXAXAXAXAXAXAXAXAXAXAXAXAXAXAXAXAXAXAXAXAXAXAXAXAXAXAXAXAXAXAX",
"AXAXAXAXAXAXAXAXAXAXAXAXAXAXAXAXa.a.nXAXBXlXAXAXAXAXvXf.,XnXAXAXAXAXAXAXAXAXAXAXAXAXAXAXAXAXAXAXAXAXAXAXAXAXAXAXAXAXAXAXAXAXAXAX",
"AXAXAXAXAXAXAXAXAXAXAXAXAXAXAXAXAX7X6XnXAXAXAXAXAXAXAXZXAXAXAXAXAXAXAXAXAXAXAXAXAXAXAXAXAXAXAXAXAXAXAXAXAXAXAXAXAXAXAXAXAXAXAXAX",
"AXAXAXAXAXAXAXZXAXAXAXAXAXZX-X4X<XZXvXvXAXAXAXAXAXAXAXAXAXAXAXAXAXAXAXAXAXAXAXAXAXAXAXAXAXAXAXAXAXAXAXAXAXAXAXAXAXAXAXAXAXAXAXAX",
"AXAXAXAXAXAXAX&X7XCXAXAXAXZX#X  @ { iXZXAXAXAXZXxXZXAXAXAXAXAXAXAXAXAXAXAXAXAXAXAXAXAXAXAXAXAXAXAXAXAXAXAXAXAXAXAXAXAXAXAXAXAXAX",
"AXAXAXAXAXAXdXu.  uXAXZXAXAXAXlX*.y   8XAXAXAXCX] AXAXAXAXAXAXAXCX8XZXAXAXAXAXAXAXAXAXAXAXAXAXAXAXAXAXAXAXAXAXAXAXAXAXAXAXAXAXAX",
"AXAXAXAXAXAXjXd.  pXAXAXAXAXAXAX7X@.y $.<XnXAXCX-.jXZXAXAXAXAXAXAXvX>.ZXAXAXAXAXAXAXAXAXAXAXAXAXAXAXAXAXAXAXAXAXAXAXAXAXAXAXAXAX",
"AXAXAXAXAXAXd.y   eXAXAXAXAXAXAXAX;X+ u   @.pXCX|   bXAXAXAXAXAXAXAXhXZXAXAXAXAXAXAXAXAXAXAXAXAXAXAXAXAXAXAXAXAXAXAXAXAXAXAXAXAX",
"AXAXAXAXAXAXd.. s.lXAXAXAXAXxXlXs.pX*X  z +   7.s ] CXAXAXAXAXAXAXAXAXAXAXAXAXAXAXAXAXAXAXAXAXAXAXAXAXAXAXAXAXAXAXAXAXAXAXAXAXAX",
"AXAXAXAXAXAXf.  kXAXZXAXBX<X4       < e 4 a s . 6 H =XCXAXZXAXAXAXAXAXAXAXAXAXAXAXAXAXAXAXAXAXAXAXAXAXAXAXAXAXAXAXAXAXAXAXAXAXAX",
"AXAXAXAXcXAXZX4XkXAXjX%.t.  +.s i i 6 4 5 5 e a t h   9XAXAXAXAXAXAXAXAXAXAXAXAXAXAXAXAXAXAXAXAXAXAXAXAXAXAXAXAXAXAXAXAXAXAXAXAX",
"AXAXBX<X  5XZXAXAXvXOXw { +.H e 5 e e 4 5 e 5 r } [ %.@ OXlXAXZXAXAXAXAXAXAXAXAXAXAXAXAXAXAXAXAXAXAXAXAXAXAXAXAXAXAXAXAXAXAXAXAX",
"hX>.-.  ;XvXAXAXnXOX  %.| w 4 5 5 6 8 7 5 a M 4 w [  .%.t 4 iXAXZXcXAXAXAXAXAXAXAXAXAXAXAXAXAXAXAXAXAXAXAXAXAXAXAXAXAXAXAXAXAXAX",
"dX  i.lXAXAXAXAXlX=X*.t 6 5 q q 6 ] i # = b 0 q 5 4 [  .%.] y.kXCXw 1X7XBXAXAXAXAXAXAXAXAXAXAXAXAXAXAXAXAXAXAXAXAXAXAXAXAXAXAXAX",
"8Xs.AXAXAXAXAXAXAXZX;X  l 5 5 6 [ } +.f & ; 7 e 5 5 5 }  .%.@ d.nXnXOX  %.dXZXAXAXAXAXAXAXAXAXAXAXAXAXAXAXAXAXAXAXAXAXAXAXAXAXAX",
"vXlXAXZXAXAXAXaX7XOX  s 4 w 5 H  .N N N M $ 7 7 5 5 5 u [ { %.r d.AXAXkXy.  gXAXAXAXAXAXAXAXAXAXAXAXAXAXAXAXAXAXAXAXAXAXAXAXAXAX",
"AXAXAXAXAXvXOXw   w a 4 5 5 t o.+.M M | n X = 7 7 e q 4 [ .. .O.] a.ZX*X*.  sXAXAXAXAXAXAXAXAXAXAXAXAXAXAXAXAXAXAXAXAXAXAXAXAXAX",
"AXAXAXZX7X] y O.%.O.H 4 w [ } N f f |  .} 8 % 7 7 5 5 5 [ [ +.{ t.dXAX3.  6XCXAXAXAXAXAXAXAXAXAXAXAXAXAXAXAXAXAXAXAXAXAXAXAXAXAX",
"AXAXAXnX  O.%.O.X.[ w u ....} M j f | } X.[ ; 7 7 7 6 H t i     6.#Xs.@.  cXAXZXAXAXAXAXAXAXAXAXAXAXAXAXAXAXAXAXAXAXAXAXAXAXAXAX",
"AXAXAXZXsXr   u O.{ w t ..} } M j f | } ..| = - 7 & 6 5 s   #X4X      @ 7XCXAXAXAXAXAXAXAXAXAXAXAXAXAXAXAXAXAXAXAXAXAXAXAXAXAXAX",
"AXAXAXAXAX*X$X<   k 4 q u ..} } j f f | n b 7 = & 8 6 4 s   ;XjX$X$X%XvXAXAXAXAXAXAXAXAXAXAXAXAXAXAXAXAXAXAXAXAXAXAXAXAXAXAXAXAX",
"AXAXAXAXAXAXAXlXi.  l 4 r ..} ..| M f 0 7 7 = X % } [ e 4 | t t.hXAXAXAXAXAXAXAXAXAXAXAXAXAXAXAXAXAXAXAXAXAXAXAXAXAXAXAXAXAXAXAX",
"AXAXAXAXAXAXZXAXiX@.5 l q t ..} { n - 7 & & & 0 { } X.u 4 y O.] @ #XAXAXAXAXAXAXAXAXAXAXAXAXAXAXAXAXAXAXAXAXAXAXAXAXAXAXAXAXAXAX",
"AXAXAXAXAXAXAXZXAX8X  @ i 4  .} n 7 = & % % d d +.} H e 4 H ..$.{ t.ZXAXAXAXAXAXAXAXAXAXAXAXAXAXAXAXAXAXAXAXAXAXAXAXAXAXAXAXAXAX",
"AXAXAXAXAXAXAXAXAXAXdXe.a i r r - = % & + g.k.C N N i 5 w 4 H O.4 k AXAXAXAXAXAXAXAXAXAXAXAXAXAXAXAXAXAXAXAXAXAXAXAXAXAXAXAXAXAX",
"AXAXAXAXAXAXAXAXAXAXAXlX  z 4 5 7 & % * + g.l.l.M M 8 q w 4 W t 6.dXAXAXAXAXAXAXAXAXAXAXAXAXAXZXAXAXAXAXAXAXAXAXAXAXAXAXAXAXAXAX",
"AXAXAXAXAXAXAXAXAXAXAXvXy.a s e & % % * + j.l.k.M g e 5 w k   s.ZXAXAXAXAXAXAXAXAXAXAXAXAXAXAXAXAXAXAXAXAXAXAXAXAXAXAXAXAXAXAXAX",
"AXAXAXAXAXAXAXAXAXAXAXAXbX    l 9 & % % O v j.1 M j i s @.  s.lXAXAXAXAXAXAXAXAXAXAXAXAXiXuXiXuXbXAXAXAXAXAXAXAXAXAXAXAXAXAXAXAX",
"AXAXAXAXAXAXAXAXAXAXAXAXZXvXf.  < 9 ; 9 d 1 o 0 N i i     < sXAXZXAXAXAXAXAXAXAXAXAXxX.X:.J J J t.uXCXAXAXAXAXAXAXAXAXAXAXAXAXAX",
"AXAXAXAXAXAXAXAXAXAXAXAXAXAXAXpX2.          ; #       5X9XvXAXZXAXAXAXAXAXAXAXAXAXcXD W 1.=.' r.r.D 6XAXZXAXAXAXAXAXAXAXAXAXAXAX",
"AXAXAXAXAXAXAXAXAXAXAXAXAXAXAXAXVXVX6Xf.=Xf.  g *XnXnXAXAXAXAXAXAXAXAXAXAXAXAXAXAXnX2 @.B.B.8.=.w.J 1XCXAXAXAXAXAXAXAXAXAXAXAXAX",
"AXAXAXAXAXAXAXAXAXAXAXAXAXAXAXAXAXAXAXxXeX7X  3.sXuXZXAXZXAXAXAXAXAXAXAXAXAXAXAXVX3X> f v.c.J.!.Y t.:.,XAXAXAXAXAXAXAXAXAXAXAXAX",
"AXAXAXAXAXAXAXAXAXAXAXAXAXAXAXAXAXAXAXnXjX<X  3.9XlXZXAXAXAXAXAXAXAXAXAXAXAXAXAXjX  d m U.T.F.8.I <.J >XBXmXMXNXmXZXAXAXAXAXAXAX",
"AXAXAXAXAXAXAXAXAXAXAXAXAXAXAXAXAXAXAXAXMX,X  3.pXAXAXAXAXAXAXAXAXAXAXAXzXyXyXNXxXO d ; z.z.9.L b.9.6.'.^.G.}.{.qXNXAXAXAXAXAXAX",
"AXAXAXAXAXAXAXAXAXAXAXAXAXAXAXAXAXAXAXAXAXvX  0.AXAXAXAXAXAXAXAXAXAXAXAXMX0XF. X Xv.> d 2 D XXp.E.U.Y.J.N.y.zXNXAXAXAXAXAXAXAXAX",
"AXAXAXAXAXAXAXAXAXAXAXAXAXAXAXAXAXAXAXAXAXlX  i.AXAXAXAXAXAXAXAXAXAXAXZXZXAXyX{.}.!./ ` ' ^.^.Y.}.P.H.A.Y ' r.pXZXAXAXAXAXAXAXAX",
"AXAXAXAXAXAXAXAXAXAXAXAXAXAXAXAXAXAXAXAXAXvX@.0.nXAXAXAXAXAXAXAXAXAXAXAXAXZXqXG.E.].].S.E.}.{.Y.K.B.#.m . ( _ 3 kXAXAXAXAXAXAXAX",
"AXAXAXAXAXAXAXAXAXAXAXAXAXAXAXAXAXAXAXAXAXAXnX  ;.AXAXAXAXAXAXAXAXAXAXdXdX.Xx c.I.H.H.J.I.K.M.M.B.S   i.7Xo =.w.D xXAXAXAXAXAXAX",
"AXAXAXAXAXAXAXAXAXAXAXAXAXAXAXAXAXAXAXAXAXAXnX(.`.2XvXnXBXnXnXBXvX@X*XF     1.|.G.n.;.V +.A N A.m.I 5XZXAXxX4._ ) d.hXZXAXAXAXAX",
"AXAXAXAXAXAXAXAXAXAXAXAXAXAXAXAXAXAXAXAXAXAXnX_.oXQ.*._ _ _ _ ' ) ,   p O *XCXfXc ` / / ~.K.N.9.  8XAXAXAXAXR ~ 4.~ > uXAXAXAXAX",
"AXAXAXAXAXAXAXAXAXAXAXAXAXAXAXAXAXAXAXAXAXAXnX(.).6.&.=.' ' ( ^ p . f.s.jXAXAXuXO q.5.9.V.'.=.  6XZXAXAXAXAXvX~ : q._ e.iXAXAXAX",
"AXAXAXAXAXAXAXAXAXAXAXAXAXAXAXAXAXAXAXAXAXAXbX  l ~ T , : : :   2.uXAXAXAXZXZXpX: <.9.}.' <.p ;XnXAXAXAXAXAXAXpXe.p q.O ,XAXAXAX",
"AXAXAXAXAXAXAXAXAXAXAXAXAXAXAXAXAXAXAXAXAXAXAXkX0 * i.e.pXbXvXvXnXAXAXAXAXZXzX'.D / S I.*.5.> jXAXAXAXAXAXAXAXAX@X  =.' r.8XAXAX",
"AXAXAXAXAXAXAXAXAXAXAXAXAXAXAXAXAXAXAXAXAXAXAXZXm X nXAXAXAXAXAXAXZXAXAXAXAXrXh.4.[.}.~.( T U Z qXNXAXAXAXAXAXAX@X. &.q.> OXAXAX",
"AXAXAXAXAXAXAXAXAXAXAXAXAXAXAXAXAXAXAXAXAXAXAXCXN x nXAXZXAXAXAXAXAXAXAXAXAXrXz.^.}.L.I #.].].}.x.tXAXAXAXAXAXAX@XO R Q 3 -XAXAX",
"AXAXAXAXAXAXAXAXAXAXAXAXAXAXAXAXAXAXAXAXAXAXAXCXg b nXAXAXAXAXAXAXAXAXAXZXAXeXx.}.I.Y.M.U.T.T.B.b %XvXAXAXAXAXAX@X  w.).$.%XAXAX",
"AXAXAXAXAXAXAXAXAXAXAXAXAXAXAXAXAXAXAXAXAXAXAXCXM # nXAXAXAXAXAXAXAXAXAXAX9X4.B.T.U.U.}.Y.V.C h `   *XAXZXAXAXAX&X,.oX+XXX1XAXAX",
"AXAXAXAXAXAXAXAXAXAXAXAXAXAXAXAXAXAXAXAXAXAXAXCX    CXAXAXAXAXAXAXAXAXAXAX%Xh.W.R.I.I.P.P.z L ! ^ q.F ;XAXAXAXjXoXQ.(._.XXwXAXAX",
"AXAXAXAXAXAXAXAXAXAXAXAXAXAXAXAXAXAXAXAXAXAXAXAXlX3.`.bXAXAXAXAXAXAXAXZXAX>Xh.L.U.P.K.N.V.C.#.1 @.=.( e.5XCXAX:XkXeX_._.;.2XAXAX",
"AXAXAXAXAXAXAXAXAXAXAXAXAXAXAXAXAXAXAXAXAXAXAXAXAX0.  cXAXAXAXAXAXAXAXAXAX-X  M.H.c.N.~ E Z.M.V T E ) / 3 w.zXAXAXbX:Xv `.fXAXAX",
"AXAXAXAXAXAXAXAXAXAXAXAXAXAXAXAXAXAXAXAXAXAXAXAXZX7.x vXAXAXAXAXAXAXAXAXAX-X  b.c.c.B.` &.I Y.m.G R V @.8.v.D.0XNXbXcXcXBXAXZXAX",
"AXAXAXAXAXAXAXAXAXAXAXAXAXAXAXAXAXAXAXAXAXAXAXAXZX0.X vXAXAXAXAXAXAXAXAXAX-X. *.T !.V.` &.' S.T.Z.Z.}.T.J./.yXmXAXAXAXAXAXAXAXAX",
"AXAXAXAXAXAXAXAXAXAXAXAXAXAXAXAXAXAXAXAXAXAXAXAXAX0.  xXAXZXAXAXAXAXAXAXAX-X: q.Y 9.W./ &./ Y.T.U.Z.A b.A Y 3XAXAXZXAXAXAXAXAXAX",
"AXAXAXAXAXAXAXAXAXAXAXAXAXAXAXAXAXAXAXAXAXAXAXAXAXB   bXAXAXAXAXAXAXAXAXAX-X  &./ !.Y.) =.T M.U.V.V D K / &.2 pXZXAXAXAXAXAXAXAX",
"AXAXAXAXAXAXAXAXAXAXAXAXAXAXAXAXAXAXAXAXAXAXAXAXAXxX7.p.vXAXAXAXAXAXAXZXAX-X  =./ 9.L.` _ B D #.C.U.m.P @._ q.  kXAXAXAXAXAXAXAX",
"AXAXAXAXAXAXAXAXAXAXAXAXAXAXAXAXAXAXAXAXAXAXAXAXAXAXf.  fXAXAXAXAXAXAXAXAX-X  &./ 8.N.Y h 1 A V.I.V.b.P E =.' q._ 7XCXAXAXAXAXAX",
"AXAXAXAXAXAXAXAXAXAXAXAXAXAXAXAXAXAXAXAXAXAXAXAXAXAXf.  jXAXZXAXAXAXAXZXAX-X  @./ 8.N.B @.Z.K.n.C N L ( ( _ =._ &.3 i.lXAXZXAXAX",
"AXAXAXAXAXAXAXAXAXAXAXAXAXAXAXAXAXAXAXAXAXAXAXAXAXAXf.  fXAXAXAXAXAXAXAXAX-X  ^ h G V U.I.N.V K K h ^ =._ _ &._ _ w.> %XnXAXAXAX",
"AXAXAXAXAXAXAXAXAXAXAXAXAXAXAXAXAXAXAXAXAXAXAXAXAXAXi.  lXAXZXAXAXAXAXAXAX*X  ^ @.A V.V.A G T l z z ~ _ _ _ _ _ _ _ q.O *XAXAXAX",
"AXAXAXAXAXAXAXAXAXAXAXAXAXAXAXAXAXAXAXAXAXAXAXAXAXAX9Xj 4XBXAXAXAXAXAXZXAX:XZ A.R.K.n.l K z ~ ~ ~ ~ W ^ ' _ =.=._ _ ( q.~ -XAXAX",
"AXAXAXAXAXAXAXAXAXAXAXAXAXAXAXAXAXAXAXAXAXAXAXAXAXAXAX=X  8XAXAXAXAXAXAXAX0XD.L.N.V L R &.( =.' =.' ' _ W W _ ~ ( =.=.4.D @XAXZX",
"AXAXAXAXAXAXAXAXAXAXAXAXAXAXAXAXAXAXAXAXAXAXAXAXAXAXAX*X  pXAXAXAXAXAXAXAX;X  @.h P ( ^ ^ ( ^ ^ _ _ =._ ~ ~ R T R ~ ^ ( _ T @XAX",
"AXAXAXAXAXAXAXAXAXAXAXAXAXAXAXAXAXAXAXAXAXAXAXAXAXZXAX=X  eXAXAXAXAXAXAXAX-X  ^ R z R R l R z h W ~ ~ ~ ~ W R R R R T R ~ p 2.,X"
};
