/* XPM */
static char *result[] = {
/* columns rows colors chars-per-pixel */
"64 64 256 2 ",
"   c #055C00",
".  c #087200",
"X  c #2F7000",
"o  c #367500",
"O  c #487800",
"+  c #567B01",
"@  c #50730B",
"#  c #677809",
"$  c #5F772D",
"%  c #7A7753",
"&  c #8F7B73",
"*  c #068300",
"=  c #348C00",
"-  c #498700",
";  c #588800",
":  c #489801",
">  c #5C9300",
",  c #579A00",
"<  c #5C9710",
"1  c #668702",
"2  c #638C00",
"3  c #649400",
"4  c #6A9400",
"5  c #649C02",
"6  c #6B9C00",
"7  c #749B04",
"8  c #719012",
"9  c #5AA400",
"0  c #5FB200",
"q  c #64A300",
"w  c #69A700",
"e  c #6CAC00",
"r  c #74A500",
"t  c #76A702",
"y  c #7AAC00",
"u  c #6CB300",
"i  c #6AB800",
"p  c #74B700",
"a  c #7DB400",
"s  c #7CBB00",
"d  c #7AA718",
"f  c #578827",
"g  c #708E2D",
"h  c #6B9525",
"j  c #769837",
"k  c #7AA629",
"l  c #78AB34",
"z  c #7AC500",
"x  c #6E8E49",
"c  c #789849",
"v  c #7B8A56",
"b  c #7B9557",
"n  c #74915C",
"m  c #7AA550",
"M  c #938E08",
"N  c #8B9500",
"B  c #AF9804",
"V  c #87AA01",
"C  c #97A701",
"Z  c #84BB01",
"A  c #88B903",
"S  c #97B501",
"D  c #87B517",
"F  c #B0A700",
"G  c #A5B702",
"H  c #909732",
"J  c #A69B39",
"K  c #92B32F",
"L  c #85A738",
"P  c #88B633",
"I  c #ABAD30",
"U  c #C39F00",
"Y  c #CFB108",
"T  c #D7B500",
"R  c #E9B600",
"E  c #FDBB03",
"W  c #F1B916",
"Q  c #CFB42D",
"!  c #F4BB2B",
"~  c #87C700",
"^  c #8CC300",
"/  c #96C803",
"(  c #93CC00",
")  c #99D501",
"_  c #93CB13",
"`  c #ADCD07",
"'  c #95C531",
"]  c #ABC934",
"[  c #CBCA0B",
"{  c #FCC301",
"}  c #F2C412",
"|  c #CCCB33",
" . c #FCC528",
".. c #F7C92A",
"X. c #FDC63A",
"o. c #869251",
"O. c #879C57",
"+. c #86A64A",
"@. c #8AB645",
"#. c #95B649",
"$. c #89A757",
"%. c #93A95B",
"&. c #8AB455",
"*. c #97B858",
"=. c #AAAF47",
"-. c #889968",
";. c #909472",
":. c #8BA668",
">. c #97AB68",
",. c #8DB06C",
"<. c #98B768",
"1. c #98A877",
"2. c #99B777",
"3. c #A3B968",
"4. c #AAAD72",
"5. c #A7BA78",
"6. c #CDB64E",
"7. c #D1B963",
"8. c #96C451",
"9. c #ACCA4F",
"0. c #9BC573",
"q. c #A4C468",
"w. c #A7C878",
"e. c #B3CD74",
"r. c #CDC952",
"t. c #FDC946",
"y. c #E1D14B",
"u. c #FFD24B",
"i. c #EBC755",
"p. c #FBCB57",
"a. c #FFD355",
"s. c #FFD35C",
"d. c #D6CB6A",
"f. c #F8CC65",
"g. c #FED363",
"h. c #FED56B",
"j. c #FFDA69",
"k. c #EECF72",
"l. c #FED574",
"z. c #FFDA75",
"x. c #F8D478",
"c. c #FFDB7C",
"v. c #FFEA69",
"b. c #FFE77A",
"n. c #FFF579",
"m. c #9D7D86",
"M. c #9C9185",
"N. c #A99093",
"B. c #95A886",
"V. c #9CB583",
"C. c #A8A689",
"Z. c #A6B887",
"A. c #B2B08F",
"S. c #A8B798",
"D. c #B9B795",
"F. c #B98DA7",
"G. c #B897A5",
"H. c #B6B1A7",
"J. c #C1B99B",
"K. c #C492B2",
"L. c #CB99BA",
"P. c #C4A7AB",
"I. c #D2A5BD",
"U. c #CAB2B2",
"Y. c #AAC488",
"T. c #B4C689",
"R. c #ADD28E",
"E. c #ADD38F",
"W. c #ABC595",
"Q. c #B8C897",
"!. c #B9C9A7",
"~. c #BAD0AC",
"^. c #BDC8B6",
"/. c #C9CD93",
"(. c #EDD08A",
"). c #FDD787",
"_. c #FFDD82",
"`. c #FCD896",
"'. c #FFE284",
"]. c #FFF38C",
"[. c #C5CAA6",
"{. c #C5D4A8",
"}. c #C6CAB7",
"|. c #D5CCB3",
" X c #C9D6B6",
".X c #D3DCB9",
"XX c #EDDBAE",
"oX c #CDE1BD",
"OX c #FEE4A9",
"+X c #EAE4B9",
"@X c #FCE6B8",
"#X c #D695CB",
"$X c #D79BCA",
"%X c #E78BDD",
"&X c #E599DB",
"*X c #D8A8C9",
"=X c #D9B7CA",
"-X c #DDAFD2",
";X c #E5A8D9",
":X c #E6B6DB",
">X c #EB89E2",
",X c #EB9CE3",
"<X c #ED98E5",
"1X c #F196EC",
"2X c #F29CEC",
"3X c #F79DF2",
"4X c #ECA4E4",
"5X c #EDACE5",
"6X c #EFABE8",
"7X c #F2A4EB",
"8X c #F2ADEC",
"9X c #ECB3E4",
"0X c #EEB8E7",
"qX c #F0BFE7",
"wX c #F1B4EA",
"eX c #F2BCEB",
"rX c #F9AAF4",
"tX c #F8B7F3",
"yX c #D5C6C7",
"uX c #CCD9C6",
"iX c #D6DBC8",
"pX c #D6DCD6",
"aX c #E4D0D5",
"sX c #DAE3C8",
"dX c #CBE0D5",
"fX c #DBE5D5",
"gX c #E4E6CC",
"hX c #FFECC9",
"jX c #EBF0CD",
"kX c #E6E8D8",
"lX c #E4EBDC",
"zX c #F9EDD9",
"xX c #E7F2DE",
"cX c #FCF3D9",
"vX c #EDC5E3",
"bX c #F3C2EC",
"nX c #F3CBEC",
"mX c #EBD6E5",
"MX c #F3D6EC",
"NX c #F9C8F5",
"BX c #FAD5F7",
"VX c #E7EBE4",
"CX c #EAEDE3",
"ZX c #EBF2E5",
"AX c #EAF7E5",
"SX c #EDF3EA",
"DX c #F2F4EC",
"FX c #FBF7EA",
"GX c #FBEAF9",
"HX c #EFF2F3",
"JX c #F4F6F2",
"KX c #F8F7F7",
"LX c #F6F9F2",
"PX c #FDFCF4",
"IX c #FDF4FC",
"UX c #FEFEFE",
/* pixels */
"UXUXUXUXUXUXUXUXUXUXUXCX:.= u ] X.W M . 4 t 5 G R t.c._.h.u.E ).UXHX,.v *XtXbXbXwXeXBXBX7X4XNXNX8XNXIXUXUXUXUXUXUXUXIXUXUXUXUXUX",
"lXCXGXGXAXxXVXVXKXIXIXVX^.,.l G R Q o.O.l a p G T X.h.l.s.t.{ k.jXdX*.$.-XrXbXeX8XwXBXNXwX4X-X=X-XyXVXZXVXVXVXlXkXVXVXVXCXSXDXLX",
"P A.:XqX/.q.$.H.vXBXbXnXIXfX<.- # H W.!.&.z ( ) S I ! t.X. .[ ] 5.q.~ e.:XrXNXtX4X4XtXNXbX-XC.$.<.q.w.w.2.:.b v v n n 1.Y.[..XsX",
"0.Z.L.K.L 0 = O.=XrX2X0XHXfXZ.b n S.|.(.r.` ) ( i C Y R E [ ) z 9 5 ( e.U.:XyXyX*X*X9XNXNX:X-.: s ~ ~ p - ; -.B.;.-.x c 4.J.}.|.",
"LXfXZ.2 2 5 p 5.-X2X3X;XC.,.T. XVXzX(. .p.y.' z ~ A S C C S / a 3 5 ~ ' 9.q.q.8.L A.:XtXNXvX1.p ) ) / Z 9 ,.fXKXJXVX{.!.*X&X&X;X",
"GXHX X0.,.+.p #.G.$X#XF.@ 1 {.FXUXPX).E s.g.| G S e , : h @.8.q.>.$.d e u i p e 9 +.G.-X-XU.:.e ^ / ~ D P !.LXUXUXUXkXyX4X1X2X,X",
"4XbXIXAX.XZ.7 > L $.b #   n kXUXUXPX`.t.l.l.t.R C . X f $.w.Q.{.{.W.g X O ; 3 4 4 h % o.o.c g 3 t e t #.T.sXLXUXUXIXnX4X,X,X5X6X",
">X4XmXxXZXgX}.Z.k e @.1.B.uXKXUXFX@Xl.t.c.c.p.! 6.=.B 4.~.sXkXkXZXiXH.M.N.M.-.c f O X . = - r +.C.C.8 +.Q.kXPXUXxXpX0X2X4X5X0XeX",
"1X&X1.Y.SXUXPXxX0.~ T.gXDXUXUXFX`.E E t.l.).f.g.x.x.X.`.ZXUXUXUXUXIXmX9XwX-XD.*.g X O o O 5 p 5.;X#Xo.d W.gXUXDXY.1.;X2X6XwXbXbX",
"I.J.V ' .XlXxXsXd.[ e. XCXPXFX@Xh.{ ! a.b.b.a.a.b.'.u.`.PXUXUXPXxXkXbXtXrX5XD.$.O.1.H.H.~.W.D L F.F.C.w./.+XcX+XK t D.=X5X8XwXeX",
"8.' ) _ @.@.8.] ..} S ,.~.iX).h.c.l.s.v.n.n.X.X.z.b.p.`.FXUXUXZXe.3.-X2X3X#X;.k T.sXSXUXUXVX,.X @ v Q..X`.b.c.k.] ~ ) e.;X1X,X2X",
"p z ( ~ , , P 9.Y U 7 < 2.d.t.p.c._.p.a.n.b.j.p.d.7.Q d.gXPXUXZX8.4 N.K.K.N.@ $..XLXGXGXGXMXuX!.!.H.Q./.l.u...{ G a ~ 9.D.I.P.P.",
"t y ^ Z ; m !.[.#.3 + ; < I i.j.'.z.t.X.x.'.'.k.J : 1 $.Q.kXUXSX2.- t t 4 1 o 1.ZXUXNX5X&XeXGXUXKXSXR./ W .. .! M , Z _ ' P P L ",
"$.*.9.r.Q /.gXlXuX!.Z.O.> V | y.d.r.Q Q f.).].x.K : 9 k >.Q.kXxXuX^.~.~.^.!.h ;.mXBXeX,X%X4XNXGXVX~.&.V Y T Y B 8 - r y e 9 : - ",
"5.e.).c.j.OXFXUXUXJXsXQ.b 6 ) ) / A 5 I i.j._.k.] z ~ V 5 $.Q.gXUXUXUXUXUXVX<.$.#X7X8X6X4X,X7X*X1.w 4 4 y t 7 1 + + 1 4 4 1 ; + ",
"/.(.l.l.b.OXPXUXUXUXLXsXQ.&.t 0 9 > = 7 I 6.7.r.' ~ ) ~ q > +.S.oXjXhXhXiX!.&.K D.U.;XrX2X&XI.A.K a r 6 > , : b G.F.g c !.|.D.=.",
"c.l.g.s.g.OXFXUXUXUXUXLXgXQ.b O + + 2 2 + ; 4 t A / ) _ D t # ; e ` ! W M - a ( ) e.=X1X1X*X3.~ ) ) A 7 4 4 q 4.$X&Xo.,.HXPXOXz.",
"_._.v.v.u.c.@XcX@XcXUXUXLXlXpX}.H.5.>.8 o   X - 9 #.[.U.U.P.F.M.3 6 B 6.U.!.&.p ~ ] D.P.P.C.P s ( ( y j 5.2.w g N.G.C. XKXUXOXs.",
").'.].n.X.! h.c.j.OXDXIXUXUXUXLXsX[.Q.2.b @ $ ; : ;.-XtXtX8X7X#X& o = V.HXLXY.w ~ ~ ^ Z y r 7 D D Z 5 $.{. X:.; O c Q.sXPXPX`...",
"p.g.n.b.a.X.t.t.X.p.T.^.nXBXgX~.2.S.sXlXpX}.Q.A.N.$X9XtX8X7X2X&X#XN.; 2.LXPX X<.l , , , = ; d <.E.Y.r $.U.aXI.G.B.2.5.T.~.{.9.Q ",
"E t.x.'.j.a. .X.h.i.V ;.#X*X3.u O ;.CXUXUXLXsX|.;X2XeXeX4X,X,X,X<X*XO.q.SXUXkXQ.$.1 j j g v 2./..X[.@.1.-XrX2X;XyX{.#.w r r r t ",
"F Q x.'._.h.T r.@XzXfX}.N.& 1 7 =.(.OXhXFXsXR.D.;X3X8X8X5X5X0XwX3X&X%.q.AXUX@X(.d./.iXpXdXpXVXpXQ.5.P.*X5X7X2X4X0XyXq.z a a a s ",
"9 K k.b.'.d./ Y.SXUXUXSXZ.- X H k.b.u.g.{.W.d $.$X&X&X;X5XeXeXeX4X*X#.w.SXPXOXj.j.OXFXUXPXUXUXxX<.H $X4X6X6X4X<X<X*Xe.) / Z ^ ^ ",
"w P 9.r.r.] e 0.ZXUXUXUXVX~.&.G t.a. .X.3.m ; 4 4.A.4.G.;XrXrX:XU.3.u 0.HXPXOXg.g.).OXhXhXhXzX Xm 3 >.U.;X7X3X;XP.e.9.~ Z a y a ",
"r y a s s a r Y.SXUXUXUXUXDXR.S T E W R N - n &.' ~ i :.#X%X&XL.*.z y T.ZXPXOXs.s.g.j.z.j._..X!.:.6 z q.*X<X&X*X*.z Z D k k L d ",
"; 1 7 w , t <. XJXUXUXUXUXCX,., C F B M # n pXVX~.e.q.>.;.m.& -.5 V 9.(.OXOXh.u.v.n.'.j...x.zXVX!.w.T.T.D.C.m.% 3 , , d <.3.*.*.",
"; 1 2 2 4 1.{.kXJXIXIXUXUXSXS.c ,.&.m f o 1.VXPXaX[.T.>.j 2 c m - J k.'.z.s.! t.n.].b.l.j.OXPXUXkXsXsX.X[.5.-.x -.$.c +.3.Z.D.D.",
"A t + f >.{.AXKXnXeX0XnXUXUXZXfXlXsX~.<.> 8 w..XvX;X1.l <.!.sXuX,.C f.j.u.X.X.s.b.b.X._.hXUXUXUXPXLXKXLXJXAXVXfXlXfX~.5.k ;.I.:X",
"A V 8 ;. XxXPXGXwX%X%X5XBXUXUXUXUXUXxX X1.r i #.I.#X% j {.xXUXLXY.S y.u.W ! f.l.c.h.{ x.ZXHXSXDXLXLXPXPXJXJXPXUXUXIXkX[.$.-.L.&X",
"o 4 >. XDXIXBXeX4X%X4X5X0XnXUXUXUXUXPXCX XV.l , o.%   b fXUXUXSX0.~ ` ] G Q k.'.'.b.| ] Y.W.V.V.R./.`.).A.B. XkXMXMXnXaX[.Z.;.-.",
"-.B.uXxXAXGXqX<X,X4XwX9X>X4XVXDXKXUXUXPXjX/.=.C +.:.b H.JXUXUXCXQ.' _ ~ q K d.x.c.d.] z w > 4 6 e S R T M n [.gXvXbXtXvXaX}.4.c ",
"VXSXUXDXQ.S.;X2X6XwXbXeX7X&XC.!.HXUXUXPXOXt.R k.gXVXVXHXUXUXGXbX0X}.w.~ ~ _ ' =.I K ( s : 3 Z.Z.k 1 N J 5.{.ZXKXMXeXwXqXvXaX:X=X",
"UXPXUXsX@.V P.;X5XwXeX0X:XH.7 &.fXGXKXhX'. .E ).PXUXUXUXDXCXvX8XrX;X4.p Z a 5 , 5 l 8.q.,.S.sXiX5.h = b }.kXIXGXNXwXtXtXbXNXNXNX",
"UXSX~.*._ ) K D.;X3X3X:X/.] s 8. X+X`.l.c.j.X.`.PXUXUXSX/.T.;X1XrX;X1.> 5 ; X + L 5.e. XkXDXPXDX.Xw.t >.yXnXMXnX5X5XNXBXnXbXtXtX",
"UXCX:., / ) z #.P.$X;XP.9.( ` 9./.(.! { z._.u.).hXFXUXAX8.y P.#X#XF.v - c ,.B.S.~. XiXZXUXUXUXKXkX[.P 2.:XNXeX8X,X8XNXBXbX:X-X*X",
"UXSX:.= s ^ t D %.>.<.8._ ` y.h.(.).g.g.c.l.t.! X.OXUXHXV.> +.O.o.# X # 5..XVXHXKXKXLXPXUXUXBXnXeX=X*.<.:XrX7X4X5X9XnXbXrX&XN.x ",
"VXiX!.V.q.8.#.t > , e i e I p.j.b.z.a.s.b.b.t.E E f.zXkX:.; P 8.0.S.V.H.uXZXFXFXzXGXUXUXxXkXvX8XrX;Xq.] }.-XL.$XwXNXbXvX;XP.+.: ",
"c S.VXDXoXT.5.+.; o - ; = C i.j.'.c.X.X.n.].j.s.l.c.).k.H j W.sXSXKXIXIXUXFXOXg.p.`.IXKXE.5.;X3X3X-Xe.) 9.*.L C.:XNXNXvXT.D A Z ",
". 2.SXUXSXfXsX}.S.S.S.S.1.3.6.i.7.d.p.s.n.n.s.p._.b.p.W G c Z.uXSXPXSXCXFXhXc.{ E p.hXgX] y G.L.L.G.=.s p q : m H.-X=XU.8.~ ( _ ",
": 2.ZXUXUXKXKXKXKXKXPXJXiXQ.O.7 4 =.k.b.'.z.t.t.c.'.j.i.] e > ;. X XV.=.i.f.f.a.X.! p.i.I w d h g # ; O O ; ; 8 x v O.#.D ) ) ) ",
"#.Q.SXUXPXcXcXPXUXUXUXZX.Xw.+.9 : K k.'._.h.! Q r.d.i.y.I e o # 5.w.a S Y } X.u.! { { [ S &.E.~.!.W.!.S.B.:.%.h O . = : w a A ^ ",
"Q.iXUXLX@Xz.s.OXPXUXkXQ.<.V ) ) Z 9.x.).z.i.I 3 H D _ D t > O ; k P _ ) / ` ..! !  .[ ( ~ w.CXUXKXKXUXDXiX[.T.%.1 X O - ; 2 > > ",
"xXkXfX+Xc.} { g.gXiX.XT.k q ( ) Z K r.d.6.I 1 . = > q 9 ; g ;.1.h w / ) p S Y W ..[ ) ~ s <.}.zXCXcXcXjX[.Z.Q.Q.G.N.m.N.H.^.^.^.",
"UXZXE.` !  ...! H m [.Q.b 5 Z ^ y 7 k 8 # + + + 2 3 > ; o v [.~.m , A / a y y V A / / ^ a 4 f o.i.u.9.l 2 o.Q.iXaX,X>X0XJXUXUXUX",
"UXSX*.5 F T Y B @ x uXkX!.>.l 3 ; ; O O g c :.1.>.5.~.!.V.2.W.e.6.F A t 6 > - = 9 q u y @.*.$.H U U V , o O.U.vXqXrX7X8XBXGXmXsX",
"UXVX2.- t t 7 # X ;.VXUXsXD.o.O + + O g %.T.{.|.[.sXKXKXsXQ.+.C W ! B - 3 2 + + ; > > j 5.Q..XQ.o.; + + 5 1.$X7X8X5X4X,X2X*X1.e ",
"UXHXpX}. XuX^.^.^.uXkXfX~.<.d +.G.N.$ c  XkXjXZXxXDXGXGXmX|.T.=.Y B # - $.S.}.uX X^.G.G.I.yXxXxXdXH.b 2 A 9.D.*X;XrX2X&XU.D.K e ",
"UXUXUXUXUXUXUXUXUXLXsXQ.$.3 p 5.&X#Xo.,.VXUXUXUXUXIXBXeXbXnXiXQ.+.+ O o.Q.sXLXUXUXGXqX%X%X0XGXUXUXCXV.5 ) ) ^ 3.*X1X1X-Xe.) ~ ^ ",
"UXUXfX X XuXVXPXUXUXHXsXW.&.e k N.G.>.~.DXUXGXGXGXBXbX9XeXMXDXxXuX^.}.uXkXxXsXgXGXBX8X<X<XwXNXMXfX~.:.6 / ( z L C.P.U.D.' z z p ",
"UXZX5., ; +.Q.sXJXUXUXKXsXQ.o.O - $.Q.gXPXUXMXeXbXeXwXwXwXMXGXUXUXUXUXUXUXCX<.O.*X8X,X4X6XwX7X$X>.q 3 7 A D D r t y Z ~ ( ^ V t ",
" X!.P A U Y 9.Y.W.^.MXBXmX=XK.G.}.sXkXDXPXIXNX8XbXNXNXbX6XqXBXGXGXGXUXUXUXZX8.L ;X2X4XwXbXwX3X$X3.p r m w.w.>.d ; = = V | | Q Y ",
"r t p `  .! ` u - & *XrXwX7X<XwXGXUXUXUXUXKXbX5XqXNXBXNX7X;X0XbX0XBXKXUXUXAXe.#.*X,X6X0XbXeX4X*Xe.( y &.{..XQ.5.v f ; I i.s.X. .",
"Y.2.q 1 B B 7 4 M.L.9XeX4X,X<X4XbXGXUXUXUXFX}.U.;XtXNXNX9X4X7X8XrXqX}.oXUXSX0.t 4.U.:XrXrX;XP.4.' ~ : :.sXDXCXfXpX|.7.R l.l.a.t.",
".X!.;.$ $ x 3 M.%X8XeXeX5X<X4X,X%X9XGXPXUXxXq.K I.4XqXbXwX5X;X&XwX*Xj *.SXJXY.w p <.I.<X<X#X>.e ~ ' 4 Z.SXUXUXUXUXzX(.{ l.).h.s.",
"f.(.iXpXdXpXfXpX5X1X7X6X5X5XwXwX2X&X}.!.~.W.y y 4.U.vXNXNXqXH.C.D.4.- $.SXPX{.*.w 6 ;.M.m.M.>.q.T.{.oXCXUXUXcXOXhX@Xl.t.c.c.p.! ",
"E c.FXIXUXUXUXKX:X&X&X;X5X0XbXeX4XL.%.9 w t l D p q.yXbXbX=X>.w z A r S.SXUXkX[.1.g j 8 ; g >.Z.Q.sXKXUXIXzX). .j.z.g.g.c.c.t.W ",
"s.c.OX+X[.^.lXgXH.4.T.[.:XrXrX5XP.>.K ~ Z K w.5.w > 1.N.N.;.>.q.T.{.pXSXUXUXPXVX*XK.L.U.S.2.+.L 8.[.nXeXH.4.p.a.c.z.t.t.n.n.g.t.",
"_.x.a.} N h W.Q.L e ~ 9.I.&X&XL.$.p ) ) ~ q..X.XZ.j h 3 ; j >.T.Q.sXFXUXJXJXUXGXeX<XrXvXaX{.:.6 p *.$X#X% N r.f.k.h.t.t.n.n.j.p.",
"'._.g.t.G u $.b ; , z ^ >.C.C.4.P ~ ) ^ u <.kXLXVXiX!.Y.W.V.j 7 8./.`.`.A.S.oXkXqX6XeXeX:X=X[.0.e > % & H.Q.=.J =.6.f.z.'.'.a.X.",
"x.k.p.y.] u + @ n 2.*.' a t q r Z A A Z y W.SXUXUXPXgX{.XX|.1.m p / R R M x Q.yX9XwXbXeX7X;XaX{.1.x x :.{.~.$.: * K k.`.'.l.! R ",
"=.=.] ] D 3   v iXkX{.w.5.%.h - , > 5 +.w.sXIXUXUXPXOXi.t.(.VXdXm - M J 5.!.*X;X4X4XqXbX6XwXvXaX;X-XfXiXW.#._ ^ u 9.x.).b.p.Q N ",
", 9 p Z 3 # 1 S.JXUXCX XQ.%.g 1 M N 1 c T.sXlXDXPXzX`.} E x.FXGX!.x X n !.aX5X<X,X5XbXbXwX6XeXbX8XNXUXJX2.9 / ) ~ ] d.k.p.6.H * ",
"3 6 7 4 + x 5..XJXUXUXkXZ.6 t G W Q N f $.<.V./.(.).c.j.p.p.x.OXxXpXb b =XbXqX9X5XwXBXNX6X5XeXbXwXNXUXZXV.> ^ ^ y D K =.H H 1 O ",
"4 1 4 ; O b Q.kXKXUXUXSXB.- p ` ! ! M o 5 w : C R { z.'.l.t.E l.PXHX1.o.*XtXbXbXwXtXBXBX6X&XeXbX6XbXIXZXV.; A A t 2 ; O o o + + "
};
