/* XPM */
static char *result[] = {
/* columns rows colors chars-per-pixel */
"64 64 95 2 ",
"   c #000000",
".  c #0B0001",
"X  c #070708",
"o  c #0C0C0C",
"O  c #140002",
"+  c #1C0101",
"@  c #1D0C0C",
"#  c #100F11",
"$  c #0F1010",
"%  c #131314",
"&  c #171818",
"*  c #1C1C1C",
"=  c #240102",
"-  c #2C0103",
";  c #2B0D0D",
":  c #330203",
">  c #3C0204",
",  c #350C0E",
"<  c #340E10",
"1  c #221C1C",
"2  c #341A1B",
"3  c #132020",
"4  c #1F2121",
"5  c #232323",
"6  c #282324",
"7  c #2A2B2B",
"8  c #302626",
"9  c #323333",
"0  c #3C3C3C",
"q  c #440305",
"w  c #4A0306",
"e  c #4C0903",
"r  c #440C0E",
"t  c #451516",
"y  c #73020B",
"u  c #4A2A29",
"i  c #463D3D",
"p  c #653E3D",
"a  c #444445",
"s  c #434848",
"d  c #4C4B4B",
"f  c #545454",
"g  c #575858",
"h  c #5B5B5B",
"j  c #785E5D",
"k  c #656465",
"l  c #676768",
"z  c #676868",
"x  c #6A6B6B",
"c  c #7A6464",
"v  c #737474",
"b  c #7C7C7C",
"n  c #85010D",
"m  c #8B7B7B",
"M  c #7F8080",
"N  c #838383",
"B  c #878888",
"V  c #8B8C8C",
"C  c #928686",
"Z  c #918B8B",
"A  c #8F9090",
"S  c #939494",
"D  c #9E9494",
"F  c #979897",
"G  c #979898",
"H  c #9B9B9B",
"J  c #A3999A",
"K  c #9F9FA0",
"L  c #9FA0A0",
"P  c #A4A4A4",
"I  c #ACA4A5",
"U  c #A7A8A8",
"Y  c #ABABAB",
"T  c #B4ACAB",
"R  c #AFB0B1",
"E  c #B2B3B3",
"W  c #B9B3B3",
"Q  c #BCBCBC",
"!  c #BFC0C0",
"~  c #C2C3C3",
"^  c #C7C8C8",
"/  c #CBCCCC",
"(  c #CFCFD0",
")  c #D3D3D3",
"_  c #D7D8D8",
"`  c #DBDCDC",
"'  c #DFE0E0",
"]  c #E3E4E4",
"[  c #E7E8E8",
"{  c #EEEEEF",
"}  c #EFEFF0",
"|  c #EFF0F0",
" . c #F3F4F4",
".. c #F7F8F8",
"X. c #FBFCFC",
/* pixels */
"{ { { { { { { { { { } } } { { } { } { { } { { | { | { { | { { { { | | { { { { { { { { | { { { { { { { { { { { {  ./ ) | | { { | ",
"{ | { { { { { { { { } } { { { { { { { { { { { | { { { { { { { { { { { { { { { { { | { { { { { | { | { { { { { { | ) ` | | { { { ",
"{ { { { { { { { { { { } { { { { { { } { | | { { { { { | | { { { { | { { { { { { { { { { { { { { | { { { { { { { | | | { { | | { ",
"{ { { { { { { { { { { } } { { } { { { { { { | { { { { { { } { { { { { { { { { { { { | | | { { { { { { { { { { { | { { { { { | { ",
"{ { { { { { { { { { { { { { { { { { { { { { { { { { { { { { { } { } { { { { { { { { { { { { { { { { | | | | { { { { { { | | { { ",
"{ } { { { { { { { } { { { { { } } { { { { { { { { { { { { { { { { [ { { { { { { { { { | | |  . .{ { { { { { { { { { { { | | { | ",
"{ } { { { { { { { { { { { { { { { { { { { { { { { { { { { { { { } .. .{ { { { { | | | _ ) ) ) ) ]  .{ { { { { { { { { { { { { { ",
"{ { { { { { { { { { } { { { } { { { { } { { { { | { { { { { {  .[ S ) [ { { { { { [ [           g ~  .{ { { { { { { { { { { { { ",
"{ { { { { { { { } { { | { { | { { { { { | { { { { { { { { { [ E   N S ` { { { | '   0 *           b  .{ { { {  .{ { { { | { { { ",
"{ { { { { { { { { { { { | { | { { { { { { | | { { | { { { { { ^ )  ...{ { { { { ^       h k x g P ] | { { { { ) ] { { { { { { | ",
"{ { { { { { { { { { { } { { { { { { { { { { | { { { { { { { {  . .{ { { { {  ./   o X   ]  .| |  .| { { { | ..! ' | { { { { { { ",
"} { { { { { { { } { { { { | { { { { { { | { { | { { { { { { { { { { [ { |  .X._         ` | { { { { { {  ./ / ) [ | { | { { { { ",
"{ { { { { { { { { { { { { { { { { { { { { { | { { { { { { { { { {  ...[ [ ! N v     X h {  .{ { { | ..{ M       ( | { { { { { { ",
"{ { { } { { { { { { { { { | | { { { { { { { { { { | { { { { { | { Q Q x         o   o E R ]  .| | ' R U   9     ( | { { { | { { ",
"{ { { { { { { { { { { { { { { { { { { { { { { { { { { { { |  .) x         % 5 &           f x z x s     0 ! [ d / | { { { { { | ",
"{ { { { { { { { } { { { { { { { { { { { { { { { { { | { | ] A     7 7 $               5 6           7 4     L   _ ..{ { | { { { ",
"{ { { { { { { { { { } { } } { } { { { { { { { { { | { { | { ` F       X                   % % % % $       o     P ` { { { { { { ",
"} } { { } { { { { { { { } } { { { { { { { { { { { | { { { { |  .) ` k                                       5   S ]  .{ { { { { ",
"{ { { { { { { { { } { { } } { { { { { { } } { { { { { { { { { [  .X.v                                             N )  .|  . .[ ",
"{ { { { { { { { { { { { } } { } } { { { { } } { { { { { { { { {  .v X                                           X     E | ^ ( ..",
"{ { { { { { { { { } { { { { { { { { { { { } { { { { { { | { |  .S X                                               6   S /     A ",
"{ { { { { { { { { { { { { } { { { { { { { { { { { { { { { | | R     X                                               N B   6 %   ",
"{ { { { { { { { { { } { { } { } { { { { { { { { { { { { { [ /   * X                                                 ! ` d   o 7 ",
"{ { { { { { { { } } { { { { { { { { { { { { { { { { { |  .)   9 %                                               %   U X.)       ",
"{ { { { { { { } } } } } { { { { { { { { { } { { } { { { { ] C     * 6 $                                           v ) X.)   X H ",
"{ { { { } { { [ } } { { { { { { { { { { { { { { { { } { { {  .( v       o                                         ! { Q a   N ..",
"{ { { { } } } } { { { { { { { { { { { { } { } } { { { { { { {  . .Q ~ v               .                         %       g ^ ..[ ",
"{ { { { } } } [ { { { { { { { { } { { { { } } { { { { { { { { { { X.[ v                                       X     d Q | ..{ | ",
"{ { { { { { { { { { { { { } } { } } { { { { { { { { { { { { { { [ H     o           = y =                       6 P [ ..{ { { { ",
"{ { } } { { { { { { { { { { { { { { { { { { { { { { { } { { { [ 0     %           = n n :                   o   ( ..} [ { { { { ",
"{ { { { { { { { { { { { { } } { { { { { { { { { { { { { { { { [   4 %             = y n :                 5   ^ { { { { { { { { ",
"{ { { { { { { { { { { { { } } { { }  . . . .{ [ { { } { } { { { ^     * X             w +             X o     ' } { { { { { { { ",
"{ { { { { { { { { | | { { { { |  .[ Q ! ! !  . .| { { { | { { | ..Y *     *         .               % %   H ] { { { { { } | { | ",
"{ { { { { { { { | { { { | | { [ Q a         x ( { { { { { { { { [ ..] S     o X 4 *   . * * 4 1 %       v  .} } { { { { { { { { ",
"{ } { { { { { { { { { | { { X.Y     7 5 5 5     / | { { | { { { { { |  .) M         X X             h ~ } { { { { } { { { | | { ",
"{ { { { { { { { { { { [ { { ` V   %   O - - *   _  .{ { { { { { | { { {  .| ] ) N A     V V V N Q [ [ ..{ { { { { { { { { { | { ",
"{ { { { { { { { { .. .....X.V   #   = q : : .   z ) | { { { { { { { { { { { |  .{ H     G [ .. . .{ { [ } { { { { { { { { | { { ",
"{ } { { { { { { ] T T Y W Q v       O > w w . o   ~ ..|  .{ { { { { { { | { { { { _     ) [ { { { { { { { } { } { { { { { { { { ",
"{ { { { { { { { { / c m     - , : :     + +       W W p j W | { { { { { { { { { { [     ] | { { { { { { { } { { } { { { { { { { ",
"{ { { { { { { { {  .{ R s 6 t w w q : .         r >   m _ | { { { { { { { { { { { ]   X ' | { { { { { { { { { { { { { { { { { { ",
"{ { { } { { { { { { 6   %   + 2 : q w q e - - : : t > C ' .. . .| | |  . .|  . .]   % ] { | { { { { { { } { { } { } { { } { { } ",
"{ } { { { { { | [ l   5   h     ; : : q e w w q q q r     N V ] ` ` ` ` ` ' ' ^ k   1 [ | { | { { } { { { { { { { { { { { { | { ",
"{ { { { { { } ' A   X   P [ ) v   2 q   + O + O = q - 3                           @ 1 [ { { { { { } { { { { { { { } { { { { { { ",
"{ { } { { ..(     5 5   [  . . .U   8 = > =         Y { / N V V           X 7 6 &     [ } { { } { { { { } { { } { { { { { { { | ",
"{ { { { | ^ g   5     ~ [ { { { [ H   % = > + .     E ..| .. . .( z d f f &     # # f [ | | { { { { { { { } { { { { { { | { { { ",
"{ { { { ..W   %   9 Y  .{ { { { ..[ A       e +     W ..{ [ { {  .| { {  .( P S   d { | { { { { { } { { { { { { { { { { { { | { ",
"{ { {  .E 9       d  .{ { { { { ] Q k       q :     u W  .{ { { { { | { | | X._   d | { { { { } { { { { } { { } } { { { } { { { ",
"{ { { ..H   o     d { { { { { X.Q   = o .   . e e @   J  .{ { { { { { { { { | /   d { { { { { { { { { { { { { { { { { { { { { { ",
"{ { { ..P         d { { { {  .` A   < > q -   > w >   I X.{ { { { { { { { {  ./   f | { { { { | } { { } { { { { { { { { { { { { ",
"{ { {  .K   O O   d { { { { { V   %   + > q q w q w : i Y  .{ { { { { { { { ..`     | { | { { { { { { { } { { } | { | { { | | { ",
"{ { { ..P   @ @ . f } {  ...V   *         > q q w w r   N ..{ { { { { { | | _ N 0 ! | { { { { { { { { { { { { { { { { { { { { { ",
"{ { { ..G         1  ..._ b 1         O q - = - > q :   V  .{ { | { { { |  .Q   v X.{ { { { { { { { { } { } { { { { { { { | { { ",
"{ { { } ` H 0 d v ) ` D             O > =     - : : +   V ..{ { { { { { }  .~   z | | | { { { { { { { { { { { } { { { { { { { { ",
"{ { { {  . .{ { { } I : r t , : = . : q       - = = O   V ..{ { { { { { {  .~   z  .{ { { } { } } { { } { { { { { { { { | { | { ",
"{ { { { { { { { { [ X.d   > q q q w w >       q =       V ..{ { { { { { {  .~   k  .{ { { { { | { { { { { { { { { { { { { { { { ",
"{ { { { { { { { {  .S 4         . > w q       q =       V  .{ { { { { { |  .Q   v  .{ { { { { { { { { { } { { } { } } { { | { { ",
"{ { { { { { |  .{ W           = > > -         q =       V ..{ { { { { { ..W   M | | | } } } { { { { { { { | { { { { { { { { { { ",
"{ { { { {  .[ ^ h   4 X       = q q : O       : +       V  .{ { { { { {  .R   N  .} | | { { { { { { { { { { { { } { { { | { | { ",
"{ { { { {  .~     6             . + - q : .   - O       B ..{ } { { { {  .E   N  .} { { | { { | | { { { { { { { { { } { { { { { ",
"{ | { { X.Q     &                     . : > q +         V  .{ { { { { { ..W   b  .{ { { { { { { { { { | { { { { { { { { | { { { ",
"| { {  .! f   X                           O : > = O     V  .} { { { { { | U   S | } } } { { } { { { { { } } } { { { { { { { { | ",
"{ { { ..H   %                                 = > q >   Z  .} } { { {  .L   G ..} { } } { { { { { | { { } } } { { } { { { { { { ",
"{ { X.P 7                                         = :   Z ..{ } { { { ..L   H  .{ { { { } { { { { { { | [ } { { { { { } { { { { ",
"{  .E a   X                                             V  .{ { { { { ..L   G ..{ { } { { { { { } { { { } { { { } { { { { | { { "
};
