/* XPM */
static char *result[] = {
/* columns rows colors chars-per-pixel */
"64 64 239 2 ",
"   c #2D1B1C",
".  c #322415",
"X  c #36291D",
"o  c #372A1F",
"O  c #272829",
"+  c #2A2828",
"@  c #2B2828",
"#  c #2B2929",
"$  c #29292A",
"%  c #2A292A",
"&  c #2B292A",
"*  c #2B2A2A",
"=  c #2B2A2B",
"-  c #2C2929",
";  c #2E2A28",
":  c #2C2A2A",
">  c #2D2A2A",
",  c #2E2B2A",
"<  c #2F2B2A",
"1  c #2E2C2C",
"2  c #2F2D2D",
"3  c #2F2E2F",
"4  c #362721",
"5  c #332922",
"6  c #352A21",
"7  c #362A20",
"8  c #372A20",
"9  c #362A21",
"0  c #372B21",
"q  c #372B22",
"w  c #302A27",
"e  c #382823",
"r  c #382C21",
"t  c #382D22",
"y  c #3A2D23",
"u  c #392824",
"i  c #302B29",
"p  c #312C29",
"a  c #322C2A",
"s  c #322D2A",
"d  c #342D28",
"f  c #342D29",
"g  c #372F2A",
"h  c #302D2D",
"j  c #302E2D",
"k  c #302E2E",
"l  c #302E2F",
"z  c #312F2F",
"x  c #3E3025",
"c  c #3F3125",
"v  c #3E3126",
"b  c #3F3227",
"n  c #37302A",
"m  c #3C332D",
"M  c #312F30",
"N  c #323031",
"B  c #333132",
"V  c #323133",
"C  c #333233",
"Z  c #363130",
"A  c #343233",
"S  c #353435",
"D  c #363435",
"F  c #363536",
"G  c #383535",
"H  c #393636",
"J  c #393737",
"K  c #3D3939",
"L  c #3D3A3A",
"P  c #3D3A3C",
"I  c #3E3B3C",
"U  c #3F3C3F",
"Y  c #413225",
"T  c #403226",
"R  c #413226",
"E  c #413326",
"W  c #423326",
"Q  c #423427",
"!  c #443528",
"~  c #443628",
"^  c #46382A",
"/  c #47382A",
"(  c #46392B",
")  c #47392B",
"_  c #46392C",
"`  c #473A2C",
"'  c #48392B",
"]  c #483A2B",
"[  c #493A2B",
"{  c #493C2C",
"}  c #4A3D2D",
"|  c #4D3D2E",
" . c #4E3D2E",
".. c #413D3D",
"X. c #413D3E",
"o. c #423D3F",
"O. c #423E3F",
"+. c #533D32",
"@. c #514031",
"#. c #524031",
"$. c #534031",
"%. c #534131",
"&. c #534032",
"*. c #554232",
"=. c #554632",
"-. c #574434",
";. c #5C4F36",
":. c #5E4A38",
">. c #5F4A38",
",. c #634D3C",
"<. c #644F3C",
"1. c #654F3D",
"2. c #64503B",
"3. c #66513D",
"4. c #69533E",
"5. c #67583C",
"6. c #6A583F",
"7. c #444041",
"8. c #444042",
"9. c #474345",
"0. c #484447",
"q. c #494549",
"w. c #4B474A",
"e. c #4C4649",
"r. c #504C51",
"t. c #534F53",
"y. c #534F54",
"u. c #545055",
"i. c #555056",
"p. c #555156",
"a. c #565258",
"s. c #575359",
"d. c #585459",
"f. c #6F5742",
"g. c #705943",
"h. c #715E43",
"j. c #705844",
"k. c #725944",
"l. c #725945",
"z. c #735A45",
"x. c #745B46",
"c. c #735C45",
"v. c #775D48",
"b. c #785E48",
"n. c #7C624B",
"m. c #7D634B",
"M. c #7A6449",
"N. c #7B6749",
"B. c #7A6948",
"V. c #7F684B",
"C. c #7F6A4B",
"Z. c #605C62",
"A. c #625E65",
"S. c #635F65",
"D. c #646066",
"F. c #68646A",
"G. c #68646B",
"H. c #69656C",
"J. c #81664D",
"K. c #81674D",
"L. c #82674E",
"P. c #83684F",
"I. c #84694F",
"U. c #85694F",
"Y. c #86754F",
"T. c #856B50",
"R. c #866B50",
"E. c #866F50",
"W. c #8A6E52",
"Q. c #8A6F52",
"!. c #8B6F53",
"~. c #8A7353",
"^. c #8C7454",
"/. c #8F7455",
"(. c #8D7754",
"). c #8B7A52",
"_. c #8D7953",
"`. c #917656",
"'. c #937A57",
"]. c #947B57",
"[. c #917C55",
"{. c #947A58",
"}. c #937D58",
"|. c #957D58",
" X c #967D59",
".X c #977E59",
"XX c #977F5A",
"oX c #948057",
"OX c #98805A",
"+X c #99805A",
"@X c #99835C",
"#X c #9C845D",
"$X c #9D855D",
"%X c #9E865E",
"&X c #9E875E",
"*X c #9F875F",
"=X c #A28F5F",
"-X c #A28B60",
";X c #A38B62",
":X c #A38C61",
">X c #A48D61",
",X c #A49061",
"<X c #A59261",
"1X c #A69261",
"2X c #A69361",
"3X c #A69062",
"4X c #A79362",
"5X c #A89462",
"6X c #A89563",
"7X c #A99563",
"8X c #AA9663",
"9X c #A99166",
"0X c #A99564",
"qX c #AA9664",
"wX c #AA9764",
"eX c #AF9A67",
"rX c #AF9B67",
"tX c #AF966A",
"yX c #B19C68",
"uX c #B49F6A",
"iX c #B49B6D",
"pX c #B6A16C",
"aX c #B9A26E",
"sX c #BAA46F",
"dX c #BAA56F",
"fX c #BDA771",
"gX c #BEA671",
"hX c #C2AA74",
"jX c #C6AE77",
"kX c #C7AE77",
"lX c #C9B079",
"zX c #CAB17A",
"xX c #CBB27B",
"cX c #D0B67E",
"vX c #D2B87F",
"bX c #D3B980",
"nX c #D9BF84",
"mX c #DAC084",
"MX c None",
/* pixels */
"7 5.;.;.=. ./ 7 MXMXMXMXMXMXMXMXMXMXMXMXMXMXMXMXMXMXMXMXMXMXMXMXMXMXMXMXMXMXMXMXMXMXMXMXMXMXMXMXMXMXMXMXMXMXMXMX7 5.;.;.=. ./ 7 ",
"7 hXeXeX#XW.v.7 MXMXMXMXMXMXMXMXMXMXMXMXMXMXMXMXMXMXMXMXMXMXMXMXMXMXMXMXMXMXMXMXMXMXMXMXMXMXMXMXMXMXMXMXMXMXMXMX7 hXeXeX#XW.v.7 ",
"7 xX0X7XXXT.x.7 MXMXMXMXMXMXMXMXMXMXMXMXMXMXMXMXMXMXMXMXMXMXMXMXMXMXMXMXMXMXMXMXMXMXMXMXMXMXMXMXMXMXMXMXMXMXMXMX7 xX0X7XXXT.x.7 ",
"7 bX<X4X|.P.l.7 MXMXMXMXMXMXMXMXMXMXMXMXMXMXMXMXMXMXMXMXMXMXMXMXMXMXMXMXMXMXMXMXMXMXMXMXMXMXMXMXMXMXMXMXMXMXMXMX7 bX<X4X|.P.l.7 ",
"7 mXfXpX>X`.m.9 MXMXMXMXMXMXMXMXMXMXMXMXMXMXMXMXMXMXMXMXMXMXMXMXMXMXMXMXMXMXMXMXMXMXMXMXMXMXMXMXMXMXMXMXMXMXMXMXq mXfXpX>X`.m.7 ",
"7 9XtX*XY.N.g.X MXMXMXMXMXMXMXMXMXMXMXMXMXMXMXMXMXMXMXMXMXMXMXMXMXMXMXMXMXMXMXMXMXMXMXMXMXMXMXMXMXMXMXMXMXMXMXMX. 9XtX*XY.N.g.7 ",
"7 :X[.oXV.k.1.Z > MXMXMXMXMXMXMXMXMXMXMXMXMXMXMXMXMXMXMXMXMXMXMXMXMXMXMXMXMXMXMXMXMXMXMXMXMXMXMXMXMXMXMXMXMXMX> e.:X[.oXV.k.1.7 ",
"7 kXrXrX$XQ.v.F 2 MXMXMXMXMXMXMXMXMXMXMXMXMXMXMXMXMXMXMXMXMXMXMXMXMXMXMXMXMXMXMXMXMXMXMXMXMXMXMXMXMXMXMXMXMXMX2 p.kXrXrX$XQ.v.7 ",
"7 bXqXqXOXR.x.D : MXMXMXMXMXMXMXMXMXMXMXMXMXMXMXMXMXMXMXMXMXMXMXMXMXMXMXMXMXMXMXMXMXMXMXMXMXMXMXMXMXMXMXMXMXMX: t.bXqXqXOXR.x.7 ",
"7 bX2X6X.XU.z.D : MXMXMXMXMXMXMXMXMXMXMXMXMXMXMXMXMXMXMXMXMXMXMXMXMXMXMXMXMXMXMXMXMXMXMXMXMXMXMXMXMXMXMXMXMXMX: y.bX2X6X.XU.z.7 ",
"7 vXlXaX,X'.K.D : MXMXMXMXMXMXMXMXMXMXMXMXMXMXMXMXMXMXMXMXMXMXMXMXMXMXMXMXMXMXMXMXMXMXMXMXMXMXMXMXMXMXMXMXMXMX: y.vXlXaX,X'.K.7 ",
"7 ^.~.E.6.2.:.D : MXMXMXMXMXMXMXMXMXMXMXMXMXMXMXMXMXMXMXMXMXMXMXMXMXMXMXMXMXMXMXMXMXMXMXMXMXMXMXMXMXMXMXMXMXMX: y.^.~.E.6.2.:.7 ",
"7 gX8XwX+XR.x.D : MXMXMXMXMXMXMXMXMXMXMXMXMXMXMXMXMXMXMXMXMXMXMXMXMXMXMXMXMXMXMXMXMXMXMXMXMXMXMXMXMXMXMXMXMXMX: y.gX8XwX+XR.x.7 ",
"7 zXqXqXOXR.x.D : MXMXMXMXMXMXMXMXMXMXMXMXMXMXMXMXMXMXMXMXMXMXMXMXMXMXMXMXMXMXMXMXMXMXMXMXMXMXMXMXMXMXMXMXMXMX: y.zXqXqXOXR.x.7 ",
"7 bX1X5X XI.l.D : MXMXMXMXMXMXMXMXMXMXMXMXMXMXMXMXMXMXMXMXMXMXMXMXMXMXMXMXMXMXMXMXMXMXMXMXMXMXMXMXMXMXMXMXMXMX: y.bX1X5X XI.l.7 ",
"7 nXdXuX-X/.n.D : MXMXMXMXMXMXMXMXMXMXMXMXMXMXMXMXMXMXMXMXMXMXMXMXMXMXMXMXMXMXMXMXMXMXMXMXMXMXMXMXMXMXMXMXMXMX: y.nXdXuX-X/.n.7 ",
"7 tXiX;X).C.c.D : MXMXMXMXMXMXMXMXMXMXMXMXMXMXMXMXMXMXMXMXMXMXMXMXMXMXMXMXMXMXMXMXMXMXMXMXMXMXMXMXMXMXMXMXMXMX: y.tXiX;X).C.c.7 ",
"7 &X_.[.M.f.,.D : MXMXMXMXMXMXMXMXMXMXMXMXMXMXMXMXMXMXMXMXMXMXMXMXMXMXMXMXMXMXMXMXMXMXMXMXMXMXMXMXMXMXMXMXMXMX: y.&X_.[.M.f.,.7 ",
"7 jXyXrX%X!.b.D : MXMXMXMXMXMXMXMXMXMXMXMXMXMXMXMXMXMXMXMXMXMXMXMXMXMXMXMXMXMXMXMXMXMXMXMXMXMXMXMXMXMXMXMXMXMX: y.jXyXrX%X!.b.7 ",
"7 cX=X<X].L.j.D : MXMXMXMXMXMXMXMXMXMXMXMXMXMXMXMXMXMXMXMXMXMXMXMXMXMXMXMXMXMXMXMXMXMXMXMXMXMXMXMXMXMXMXMXMXMX: y.cX=X<X].L.j.7 ",
"7 mXjXsX3X{.J.D : MXMXMXMXMXMXMXMXMXMXMXMXMXMXMXMXMXMXMXMXMXMXMXMXMXMXMXMXMXMXMXMXMXMXMXMXMXMXMXMXMXMXMXMXMXMX: y.mXjXsX3X{.J.7 ",
"7 }.@X(.B.h.4.D : A MXMXMXMXMXMXMXMXMXMXMXMXMXMXMXMXMXMXMXMXMXMXMXMXMXMXMXMXMXMXMXMXMXMXMXMXMXMXMXMXMXMXMXMXA : y.}.@X(.B.h.4.7 ",
"7 +.  e u 4 y D : H.: MXMXMXMXMXMXMXMXMXMXMXMXMXMXMXMXMXMXMXMXMXMXMXMXMXMXMXMXMXMXMXMXMXMXMXMXMXMXMXMXMXMX: H.: y.+.  e u 4 y 7 ",
"7 3.} { { Q E D : q.1 MXMXMXMXMXMXMXMXMXMXMXMXMXMXMXMXMXMXMXMXMXMXMXMXMXMXMXMXMXMXMXMXMXMXMXMXMXMXMXMXMXMX1 q.: y.3.} { { Q E 7 ",
"7 <.) ) ) T T D : U # MXMXMXMXMXMXMXMXMXMXMXMXMXMXMXMXMXMXMXMXMXMXMXMXMXMXMXMXMXMXMXMXMXMXMXMXMXMXMXMXMXMX# U : y.<.) ) ) T T 7 ",
"7 -.) ) ) T T D : a.k : MXMXMXMXMXMXMXMXMXMXMXMXMXMXMXMXMXMXMXMXMXMXMXMXMXMXMXMXMXMXMXMXMXMXMXMXMXMXMXMX: k a.: u.-.) ) ) T T 7 ",
"7 >.) ) ) T T S : 8.s.2 MXMXMXMXMXMXMXMXMXMXMXMXMXMXMXMXMXMXMXMXMXMXMXMXMXMXMXMXMXMXMXMXMXMXMXMXMXMXMXMX2 s.8.: r.>.) ) ) T T 7 ",
"7 #.) ) ) T T J : I F.: MXMXMXMXMXMXMXMXMXMXMXMXMXMXMXMXMXMXMXMXMXMXMXMXMXMXMXMXMXMXMXMXMXMXMXMXMXMXMXMX: F.I : G #.) ) ) T T 7 ",
"7 #.) ) ) T T w.: D 0.2 MXMXMXMXMXMXMXMXMXMXMXMXMXMXMXMXMXMXMXMXMXMXMXMXMXMXMXMXMXMXMXMXMXMXMXMXMXMXMXMX2 0.D : w.#.) ) ) T T 7 ",
"7 #.^ ) ) c T H.: 2 z MXMXMXMXMXMXMXMXMXMXMXMXMXMXMXMXMXMXMXMXMXMXMXMXMXMXMXMXMXMXMXMXMXMXMXMXMXMXMXMXMXMXz 2 : H.#.^ ) ) c T 7 ",
": < j , , h > y.: MXMXMXMXMXMXMXMXMXMXMXMXMXMXMXMXMXMXMXMXMXMXMXMXMXMXMXMXMXMXMXMXMXMXMXMXMXMXMXMXMXMXMXMXMXMX: y.< j , , h > : ",
": * B * * B : ..: MXMXMXMXMXMXMXMXMXMXMXMXMXMXMXMXMXMXMXMXMXMXMXMXMXMXMXMXMXMXMXMXMXMXMXMXMXMXMXMXMXMXMXMXMXMX: ..* B * * B : : ",
": : @ : : + : O.: MXMXMXMXMXMXMXMXMXMXMXMXMXMXMXMXMXMXMXMXMXMXMXMXMXMXMXMXMXMXMXMXMXMXMXMXMXMXMXMXMXMXMXMXMXMX: O.: @ : : + : : ",
"* % C * * C * 9.: MXMXMXMXMXMXMXMXMXMXMXMXMXMXMXMXMXMXMXMXMXMXMXMXMXMXMXMXMXMXMXMXMXMXMXMXMXMXMXMXMXMXMXMXMXMX: 9.% C * * C * * ",
"; s p i i a p G.: MXMXMXMXMXMXMXMXMXMXMXMXMXMXMXMXMXMXMXMXMXMXMXMXMXMXMXMXMXMXMXMXMXMXMXMXMXMXMXMXMXMXMXMXMXMX: G.s p i i a p ; ",
"o  .~ ~ ~ Y E w.: MXMXMXMXMXMXMXMXMXMXMXMXMXMXMXMXMXMXMXMXMXMXMXMXMXMXMXMXMXMXMXMXMXMXMXMXMXMXMXMXMXMXMXMXMXMX: w. .~ ~ ~ Y E o ",
"7 &.` ` ` T T J : MXMXMXMXMXMXMXMXMXMXMXMXMXMXMXMXMXMXMXMXMXMXMXMXMXMXMXMXMXMXMXMXMXMXMXMXMXMXMXMXMXMXMXMXMXMX: H &.` ` ` T T 7 ",
"7 #.) ) ) T T 1 : MXMXMXMXMXMXMXMXMXMXMXMXMXMXMXMXMXMXMXMXMXMXMXMXMXMXMXMXMXMXMXMXMXMXMXMXMXMXMXMXMXMXMXMXMXMX: M #.) ) ) T T 7 ",
"7 #.) ) ) T T D : MXMXMXMXMXMXMXMXMXMXMXMXMXMXMXMXMXMXMXMXMXMXMXMXMXMXMXMXMXMXMXMXMXMXMXMXMXMXMXMXMXMXMXMXMXMX: y.#.) ) ) T T 7 ",
"7 #.) ) ) T T D : MXMXMXMXMXMXMXMXMXMXMXMXMXMXMXMXMXMXMXMXMXMXMXMXMXMXMXMXMXMXMXMXMXMXMXMXMXMXMXMXMXMXMXMXMXMX: y.#.) ) ) T T 7 ",
"7 #.) ) ) T T D : MXMXMXMXMXMXMXMXMXMXMXMXMXMXMXMXMXMXMXMXMXMXMXMXMXMXMXMXMXMXMXMXMXMXMXMXMXMXMXMXMXMXMXMXMXMX: y.#.) ) ) T T 7 ",
"7 #.) ) ) T T D : MXMXMXMXMXMXMXMXMXMXMXMXMXMXMXMXMXMXMXMXMXMXMXMXMXMXMXMXMXMXMXMXMXMXMXMXMXMXMXMXMXMXMXMXMXMX: y.#.) ) ) T T 7 ",
"7 #.) ) ) T T D : MXMXMXMXMXMXMXMXMXMXMXMXMXMXMXMXMXMXMXMXMXMXMXMXMXMXMXMXMXMXMXMXMXMXMXMXMXMXMXMXMXMXMXMXMXMX: y.#.) ) ) T T 7 ",
"7 #.) ) ) T T D : MXMXMXMXMXMXMXMXMXMXMXMXMXMXMXMXMXMXMXMXMXMXMXMXMXMXMXMXMXMXMXMXMXMXMXMXMXMXMXMXMXMXMXMXMXMX: y.#.) ) ) T T 7 ",
"7 #.) ) ) T T D : MXMXMXMXMXMXMXMXMXMXMXMXMXMXMXMXMXMXMXMXMXMXMXMXMXMXMXMXMXMXMXMXMXMXMXMXMXMXMXMXMXMXMXMXMXMX: y.#.) ) ) T T 7 ",
"7 #.) ) ) T T D : MXMXMXMXMXMXMXMXMXMXMXMXMXMXMXMXMXMXMXMXMXMXMXMXMXMXMXMXMXMXMXMXMXMXMXMXMXMXMXMXMXMXMXMXMXMX: y.#.) ) ) T T 7 ",
"7 #.) ) ) T T D : MXMXMXMXMXMXMXMXMXMXMXMXMXMXMXMXMXMXMXMXMXMXMXMXMXMXMXMXMXMXMXMXMXMXMXMXMXMXMXMXMXMXMXMXMXMX: y.#.) ) ) T T 7 ",
"7 #.) ) ) T T D : MXMXMXMXMXMXMXMXMXMXMXMXMXMXMXMXMXMXMXMXMXMXMXMXMXMXMXMXMXMXMXMXMXMXMXMXMXMXMXMXMXMXMXMXMXMX: i.#.) ) ) T T 7 ",
"7 #.) ) ) T T D : MXMXMXMXMXMXMXMXMXMXMXMXMXMXMXMXMXMXMXMXMXMXMXMXMXMXMXMXMXMXMXMXMXMXMXMXMXMXMXMXMXMXMXMXMXMX: P #.) ) ) T T 7 ",
"7 @.( ( ( T T O.: MXMXMXMXMXMXMXMXMXMXMXMXMXMXMXMXMXMXMXMXMXMXMXMXMXMXMXMXMXMXMXMXMXMXMXMXMXMXMXMXMXMXMXMXMXMX: X.@.( ( ( T T 7 ",
"o *.[ [ [ W W A.: MXMXMXMXMXMXMXMXMXMXMXMXMXMXMXMXMXMXMXMXMXMXMXMXMXMXMXMXMXMXMXMXMXMXMXMXMXMXMXMXMXMXMXMXMXMX: S.*.[ [ [ W W o ",
"w m g n n d f Z.: MXMXMXMXMXMXMXMXMXMXMXMXMXMXMXMXMXMXMXMXMXMXMXMXMXMXMXMXMXMXMXMXMXMXMXMXMXMXMXMXMXMXMXMXMXMX: Z.m g n n d f w ",
"= O V $ $ C % o.: MXMXMXMXMXMXMXMXMXMXMXMXMXMXMXMXMXMXMXMXMXMXMXMXMXMXMXMXMXMXMXMXMXMXMXMXMXMXMXMXMXMXMXMXMXMX: o.O V $ $ C % = ",
": > - > > # : 7.: MXMXMXMXMXMXMXMXMXMXMXMXMXMXMXMXMXMXMXMXMXMXMXMXMXMXMXMXMXMXMXMXMXMXMXMXMXMXMXMXMXMXMXMXMXMX: 7.> - > > # : : ",
": : N : : N : K : MXMXMXMXMXMXMXMXMXMXMXMXMXMXMXMXMXMXMXMXMXMXMXMXMXMXMXMXMXMXMXMXMXMXMXMXMXMXMXMXMXMXMXMXMXMX: K : N : : N : : ",
": % 3 & & l * D.: MXMXMXMXMXMXMXMXMXMXMXMXMXMXMXMXMXMXMXMXMXMXMXMXMXMXMXMXMXMXMXMXMXMXMXMXMXMXMXMXMXMXMXMXMXMX: D.% 3 & & l * : ",
"6 _ v b b x v d.: MXMXMXMXMXMXMXMXMXMXMXMXMXMXMXMXMXMXMXMXMXMXMXMXMXMXMXMXMXMXMXMXMXMXMXMXMXMXMXMXMXMXMXMXMXMX: d._ v b b x v 6 ",
"7 %.' ' ' R T L k MXMXMXMXMXMXMXMXMXMXMXMXMXMXMXMXMXMXMXMXMXMXMXMXMXMXMXMXMXMXMXMXMXMXMXMXMXMXMXMXMXMXMXMXMXMXk L %.' ' ' R T 7 ",
"7 #.) ) ) T T 3 MXMXMXMXMXMXMXMXMXMXMXMXMXMXMXMXMXMXMXMXMXMXMXMXMXMXMXMXMXMXMXMXMXMXMXMXMXMXMXMXMXMXMXMXMXMXMXMX3 #.) ) ) T T 7 ",
"7 #.) ) ) T T 5 MXMXMXMXMXMXMXMXMXMXMXMXMXMXMXMXMXMXMXMXMXMXMXMXMXMXMXMXMXMXMXMXMXMXMXMXMXMXMXMXMXMXMXMXMXMXMXMX5 #.) ) ) T T 7 ",
"7 #.) ) ) T T 8 MXMXMXMXMXMXMXMXMXMXMXMXMXMXMXMXMXMXMXMXMXMXMXMXMXMXMXMXMXMXMXMXMXMXMXMXMXMXMXMXMXMXMXMXMXMXMXMX8 #.) ) ) T T 7 ",
"7 $.] ] ] T T 7 MXMXMXMXMXMXMXMXMXMXMXMXMXMXMXMXMXMXMXMXMXMXMXMXMXMXMXMXMXMXMXMXMXMXMXMXMXMXMXMXMXMXMXMXMXMXMXMX7 $.] ] ] T T 7 ",
"7 | ! ! ! E E 7 MXMXMXMXMXMXMXMXMXMXMXMXMXMXMXMXMXMXMXMXMXMXMXMXMXMXMXMXMXMXMXMXMXMXMXMXMXMXMXMXMXMXMXMXMXMXMXMX7 | ! ! ! E E 7 ",
"7 t 0 0 0 r r 7 MXMXMXMXMXMXMXMXMXMXMXMXMXMXMXMXMXMXMXMXMXMXMXMXMXMXMXMXMXMXMXMXMXMXMXMXMXMXMXMXMXMXMXMXMXMXMXMX7 t 0 0 0 r r 7 "
};
