/* XPM */
static char *result[] = {
/* columns rows colors chars-per-pixel */
"31 31 14 1 ",
"  c black",
". c #412D39",
"X c #5B384E",
"o c #634A59",
"O c #7B556C",
"+ c #926D83",
"@ c #B57099",
"# c #A18193",
"$ c #BFA0A8",
"% c #C187A5",
"& c #CDB5BB",
"* c gray77",
"= c gray84",
"- c None",
/* pixels */
"-------------------------------",
"-------------------------------",
"-------------------------------",
"-------------------------------",
"-------------------------------",
"---------------------   -------",
"-------------------  @$$    ---",
"-----------------  OO@*@O@$$ --",
"---------------- $**XO$*@O@$$ -",
"---------------- @$$$*@+@X+@$ -",
"--------------- +O+@$@+*$$$*$ -",
"----------     $$*OO+@$$@@$$$ -",
"--------- ***@O$$*@XO+@+$$$* --",
"-------- $$$**@+$$*O+X+@$$$* --",
"------- @$$$$$*+@$O@@@X+@$$$ --",
"------- @$$$$$$$OXX@$$@X+@$$ --",
"------- OOO$$$$O@OX$$$$$@+$ ---",
"------- %&XO$$O@$**$$$$**$$ ---",
"------ #%%&XOO$$$$**@$$$$** ---",
"----- ##%=%#XXOO$$*@@@$$$$$ ---",
"----- ==#&=OX&&XO$@@X+@$$$ ----",
"---- &&&=%O%%#%&O@++  X@@ -----",
"---- &&&&&O%&%%&OOX --   ------",
"---- %%&%O=&&==&XX ------------",
"---- o##%&&%%&&&  -------------",
"----- oo%&%#.%% ---------------",
"----- ..o%.    ----------------",
"------     --------------------",
"-------------------------------",
"-------------------------------",
"-------------------------------"
};
