/* XPM */
static char *result[] = {
/* columns rows colors chars-per-pixel */
"64 64 245 2 ",
"   c #000000",
".  c #00000D",
"X  c #190300",
"o  c #010215",
"O  c #00011B",
"+  c #070319",
"@  c #13001C",
"#  c #270307",
"$  c #260B16",
"%  c #2C0B1A",
"&  c #270917",
"*  c #350D1C",
"=  c #3A0E1E",
"-  c #320818",
";  c #36151C",
":  c #000024",
">  c #00002C",
",  c #09002F",
"<  c #1C0024",
"1  c #00003C",
"2  c #000031",
"3  c #180837",
"4  c #051B26",
"5  c #25042C",
"6  c #29052E",
"7  c #28092B",
"8  c #3B0E22",
"9  c #320A2B",
"0  c #2B1528",
"q  c #391725",
"w  c #2C0532",
"e  c #2B0B31",
"r  c #270530",
"t  c #310436",
"y  c #350539",
"u  c #39033C",
"i  c #370B39",
"p  c #2E1533",
"a  c #25183B",
"s  c #341D39",
"d  c #321736",
"f  c #2A2627",
"g  c #3B252C",
"h  c #38282E",
"j  c #2A243E",
"k  c #3E2432",
"l  c #33243C",
"z  c #33293E",
"x  c #392836",
"c  c #4D0006",
"v  c #780700",
"b  c #74111D",
"n  c #42251E",
"m  c #440B3E",
"M  c #4E0629",
"N  c #422632",
"B  c #482A39",
"V  c #46373E",
"C  c #56373F",
"Z  c #4C2427",
"A  c #753737",
"S  c #71161B",
"D  c #77493A",
"F  c #714D3A",
"G  c #6B4E00",
"H  c #000247",
"J  c #001942",
"K  c #0F0548",
"L  c #3E0442",
"P  c #3F0842",
"I  c #2F0B51",
"U  c #032244",
"Y  c #032248",
"T  c #172544",
"R  c #002657",
"E  c #193559",
"W  c #0D3052",
"Q  c #292746",
"!  c #322B43",
"~  c #3C2D43",
"^  c #382B47",
"/  c #36314A",
"(  c #3B344C",
")  c #303043",
"_  c #273557",
"`  c #3B3652",
"'  c #3E3A56",
"]  c #343959",
"[  c #3D3D5A",
"{  c #343856",
"}  c #2A354A",
"|  c #420345",
" . c #4B014D",
".. c #4C0A4E",
"X. c #460748",
"o. c #481847",
"O. c #4E0550",
"+. c #4E0951",
"@. c #510853",
"#. c #521A54",
"$. c #4E1D50",
"%. c #492547",
"&. c #433444",
"*. c #473949",
"=. c #5A3944",
"-. c #562A58",
";. c #423B54",
":. c #413D59",
">. c #4A3953",
",. c #59355A",
"<. c #4F2557",
"1. c #6D344A",
"2. c #5F3D61",
"3. c #673B62",
"4. c #410C62",
"5. c #3A425A",
"6. c #304662",
"7. c #49454A",
"8. c #534549",
"9. c #4A455C",
"0. c #47455A",
"q. c #574557",
"w. c #5F595B",
"e. c #764748",
"r. c #65595D",
"t. c #704F4D",
"y. c #4C4860",
"u. c #534C66",
"i. c #5B5766",
"p. c #50526D",
"a. c #68576B",
"s. c #795874",
"d. c #654C6E",
"f. c #6A646A",
"g. c #6E6971",
"h. c #6F6270",
"j. c #77687B",
"k. c #7B777B",
"l. c #7F696F",
"z. c #8D141B",
"x. c #8D2300",
"c. c #A11923",
"v. c #D62428",
"b. c #F92525",
"n. c #9C5411",
"m. c #B85A1E",
"M. c #B75300",
"N. c #B36C15",
"B. c #834A3A",
"V. c #954C31",
"C. c #955A36",
"Z. c #955738",
"A. c #935834",
"S. c #AC582B",
"D. c #B85C23",
"F. c #A95A32",
"G. c #B9662A",
"H. c #A76433",
"J. c #B56B37",
"K. c #BD7237",
"L. c #BF732D",
"P. c #D17300",
"I. c #C5661B",
"U. c #CB7318",
"Y. c #CC7207",
"T. c #C46D24",
"R. c #C56E2F",
"E. c #CB7425",
"W. c #CD7A26",
"Q. c #C4742C",
"!. c #C77024",
"~. c #D37D23",
"^. c #D17A29",
"/. c #C47834",
"(. c #CE7933",
"). c #C34B00",
"_. c #823560",
"`. c #84554A",
"'. c #8C534D",
"]. c #AC6C4E",
"[. c #834A68",
"{. c #895A74",
"}. c #8F5974",
"|. c #90697A",
" X c #AA706D",
".X c #9A6146",
"XX c #B58736",
"oX c #B48831",
"OX c #CC8100",
"+X c #DF8B1A",
"@X c #CF8D29",
"#X c #A5855E",
"$X c #D7AA63",
"%X c #796780",
"&X c #985785",
"*X c #847688",
"=X c #9C6B8A",
"-X c #A97098",
";X c #84828B",
":X c #8B838C",
">X c #89878D",
",X c #898A92",
"<X c #918E94",
"1X c #958896",
"2X c #95949A",
"3X c #9A959B",
"4X c #969396",
"5X c #909095",
"6X c #A89299",
"7X c #9D99A2",
"8X c #8586A0",
"9X c #A39BA4",
"0X c #A899AA",
"qX c #B391A7",
"wX c #AAA5AB",
"eX c #ACA9AE",
"rX c #A5A2A6",
"tX c #B2ADB3",
"yX c #BCBABC",
"uX c #B5B3B7",
"iX c #AFABB2",
"pX c #9BA1AB",
"aX c #D8B797",
"sX c #DAAB94",
"dX c #C5BAB8",
"fX c #C1A1B7",
"gX c #E7BCA3",
"hX c #E0C39C",
"jX c #E8CBB2",
"kX c #DDC4B7",
"lX c #BDBDC3",
"zX c #C1BDC3",
"xX c #C4C3C5",
"cX c #C5C2C9",
"vX c #CBC9CC",
"bX c #CAC6CA",
"nX c #D1CDD2",
"mX c #D5D3D6",
"MX c #DBDADC",
"NX c #D9D6D9",
"BX c #D3CCD1",
"VX c #E8D7CA",
"CX c #DEDDE0",
"ZX c #E2DEE0",
"AX c None",
/* pixels */
"AXAXAXAXAXAXAXAXAXAXAXAXAXAXAXAXAXAXAXAXAXAXAXAXAXAXyX1XAXAXAXAXAXAXAXAXAXAXAXAXAXAXAXAXAXAXAXAXAXAXAXAXAXAXAXAXAXAXAXAXAXAXAXAX",
"AXAXAXAXAXAXAXAXAXAXAXAXAXAXAXAXNXAXAXAX,.3XAXAXAXAXq.  9XAXAXAXAXAXAXAXAXAXAXAXAXAXAXAXAXAXAXAXAXAXAXAXAXAXAXAXAXAXAXAXAXAXAXAX",
"AXAXAXAXAXAXAXAXAXAXAXAXAXAXAXAXh.s.AXAXAXAXAXAXAXAXAXk.9XAXAXAXAXAXAXAXAXAXAXAXAXAXAXAXAXAXAXAXAXAXAXAXAXAXAXAXAXAXAXAXAXAXAXAX",
"AXAXAXAXAXAXAXAXAXAXAXAXAXAXAXAXAXuXtXAXAXAXAXAXAXAXAXAXAXAXAXAXAXAXAXAXAXAXAXAXAXAXAXAXAXAXAXAXAXAXAXAXAXAXAXAXAXAXAXAXAXAXAXAX",
"AXAXAXAXAXAXAXAXAXAXAXAXAXAX3XiX0XAXAXAXAXAXAXAXAXAXAXAXAXAXAXAXAXAXAXAXAXAXAXAXAXAXAXAXAXAXAXAXAXAXAXAXAXAXAXAXAXAXAXAXAXAXAXAX",
"AXAXAXAXAXAXAX1XtXAXAXAXAXAX:X  @  .zXAXAXAXAXAXMXAXAXAXAXAXAXAXAXAXAXAXAXAXAXAXAXAXAXAXAXAXAXAXAXAXAXAXAXAXAXAXAXAXAXAXAXAXAXAX",
"AXAXAXAXAXAXbXs.  zXAXAXAXAXAXMX>.u   uXAXAXAXAXX.AXAXAXAXAXAXAXAXAXAXAXAXAXAXAXAXAXAXAXAXAXAXAXAXAXAXAXAXAXAXAXAXAXAXAXAXAXAXAX",
"AXAXAXAXAXAXmXj.  xXAXAXAXAXAXAXtX&.u <.9XAXAXAX,.mXAXAXAXAXAXAXAXAX2.AXAXAXAXAXAXAXAXAXAXAXAXAXAXAXAXAXAXAXAXAXAXAXAXAXAXAXAXAX",
"AXAXAXAXAXAXj.u   dXAXAXAXAXAXAXAX3X+ i   &.xXAXo.  AXAXAXAXAXAXAXAXAXAXAXAXAXAXAXAXAXAXAXAXAXAXAXAXAXAXAXAXAXAXAXAXAXAXAXAXAXAX",
"AXAXAXAXAXAXj.. g.MXAXAXAXAXMXZXg.zX<X  z +   i.s | AXAXAXAXAXAXAXAXAXAXAXAXAXAXAXAXAXAXAXAXAXAXAXAXAXAXAXAXAXAXAXAXAXAXAXAXAXAX",
"AXAXAXAXAXAXk.  NXAXAXAXAX9X6       < e 6 d s . e u 4XAXAXAXAXAXAXAXAXAXAXAXAXAXAXAXAXAXAXAXAXAXAXAXAXAXAXAXAXAXAXAXAXAXAXAXAXAX",
"AXAXAXAXAXAXAXrXNXAXNX,.d.  %.s d p e 5 9 r r d t l   yXAXAXAXAXAXAXAXAXAXAXAXAXAXAXAXAXAXAXAXAXAXAXAXAXAXAXAXAXAXAXAXAXAXAXAXAX",
"AXAXAX9X  wXAXAXAXAX*Xw  .%.u e 6 e e 5 6 w 6 w ..X.>.5 *XZXAXAXAXAXAXAXAXAXAXAXAXAXAXAXAXAXAXAXAXAXAXAXAXAXAXAXAXAXAXAXAXAXAXAX",
"BX2.,.  3XAXAXAXAX*X  ,.o.w 5 e 5 7 9 8 6 d N r t X. .<.t 5 zXAXAXAXAXAXAXAXAXAXAXAXAXAXAXAXAXAXAXAXAXAXAXAXAXAXAXAXAXAXAXAXAXAX",
"vX  f.MXAXAXAXAXZX<X>.y 7 7 w w 7 | p # * M q r 6 7 X.O.-.| d.NXAXt wXtXAXAXAXAXAXAXAXAXAXAXAXAXAXAXAXAXAXAXAXAXAXAXAXAXAXAXAXAX",
"yXg.AXAXAXAXAXAXAXAX3X  l r 7 5 X...%.h % ; 8 9 6 6 w X.O.-.@ j.AXAX*X  ,.bXAXAXAXAXAXAXAXAXAXAXAXAXAXAXAXAXAXAXAXAXAXAXAXAXAXAX",
"AXMXAXAXAXAXAXcXtX*X  d w 6 5 P +.%.B B N & M ; r w 7 i ..O.-.t j.AXAXmXs.  nXAXAXAXAXAXAXAXAXAXAXAXAXAXAXAXAXAXAXAXAXAXAXAXAXAX",
"AXAXAXAXAXAX*Xw   w d 6 6 5 y $.B N N o.m X % 8 8 5 r < P +.O.#.| f.AX5X;.  vXAXAXAXAXAXAXAXAXAXAXAXAXAXAXAXAXAXAXAXAXAXAXAXAXAX",
"AXAXAXAXtX| u #.-.#.P 5 e X...B g g o.O.X.i $ 8 8 9 w 5 X.X.%.O.d.BXAXq.  eXAXAXAXAXAXAXAXAXAXAXAXAXAXAXAXAXAXAXAXAXAXAXAXAXAXAX",
"AXAXAXAX  <.-.#.+.X.w y +.@...N k g o...+.X.; 8 8 8 7 P u d     8.;Xg.&.  AXAXAXAXAXAXAXAXAXAXAXAXAXAXAXAXAXAXAXAXAXAXAXAXAXAXAX",
"AXAXAXAXbXt   i #.X.t y @.....N g g o...+.m ; 8 8 % 7 6 d   :XwX      @ uXAXAXAXAXAXAXAXAXAXAXAXAXAXAXAXAXAXAXAXAXAXAXAXAXAXAXAX",
"AXAXAXAXAX<X>X<   l 5 6 i +.....N g N o.m M 8 ; % 9 7 7 l   3XmX<X>X>XAXAXAXAXAXAXAXAXAXAXAXAXAXAXAXAXAXAXAXAXAXAXAXAXAXAXAXAXAX",
"AXAXAXAXAXAXAXMXf.  l 5 t +...O.o.k q q = = * @ $ ..X.w 5 o.y d.mXAXAXAXAXAXAXAXAXAXAXAXAXAXAXAXAXAXAXAXAXAXAXAXAXAXAXAXAXAXAXAX",
"AXAXAXAXAXAXAXAXxX&.6 s 6 i +...+.m = 8 * & & n  ...@.i 5 u #.| @ :XAXAXAXAXAXAXAXAXAXAXAXAXAXAXAXAXAXAXAXAXAXAXAXAXAXAXAXAXAXAX",
"AXAXAXAXAXAXAXAXAXyX  @ p w ....m 8 = % $ $ 0 l B +.| w 5 P +.<. .d.AXAXAXAXAXAXAXAXAXAXAXAXAXAXAXAXAXAXAXAXAXAXAXAXAXAXAXAXAXAX",
"AXAXAXAXAXAXAXAXAXAXvXi.p p t t = % $ % o z.v.A N B e 6 6 6 P #.6 x AXAXAXAXAXAXAXAXAXAXAXAXAXAXAXAXAXAXAXAXAXAXAXAXAXAXAXAXAXAX",
"AXAXAXAXAXAXAXAXAXAXAXMX  z 5 6 8 % $ - o z.b.b.N N p 6 w 5 ^ y q.vXAXAXAXAXAXAXAXAXAXAXAXAXAXAXAXAXAXAXAXAXAXAXAXAXAXAXAXAXAXAX",
"AXAXAXAXAXAXAXAXAXAXAXAXa.p l e % $ $ - 4 c.b.v.N g 9 6 w x   g.AXAXAXAXAXAXAXAXAXAXAXAXAXAXAXAXAXAXAXAXAXAXAXAXAXAXAXAXAXAXAXAX",
"AXAXAXAXAXAXAXAXAXAXAXAXAX    l 0 % $ % o S c.4 k k p s &.  g.MXAXAXAXAXAXAXAXAXAXAXAXAXzXlXlXlXAXAXAXAXAXAXAXAXAXAXAXAXAXAXAXAX",
"AXAXAXAXAXAXAXAXAXAXAXAXAXAXk.  < 0 0 0 g 4 o 8 B p d     < bXAXAXAXAXAXAXAXAXAXAXAXCX*X4.I I I d.lXAXAXAXAXAXAXAXAXAXAXAXAXAXAX",
"AXAXAXAXAXAXAXAXAXAXAXAXAXAXAXxX7.          ; #       wXyXAXAXAXAXAXAXAXAXAXAXAXAXZXH ^ 6.:.[ p.p.H tXAXAXAXAXAXAXAXAXAXAXAXAXAX",
"AXAXAXAXAXAXAXAXAXAXAXAXAXAXAXAXAXAXiXk.4Xk.  h 5XAXAXAXAXAXAXAXAXAXAXAXAXAXAXAXAXAX2 *.F.F.e.' y.4.0XAXAXAXAXAXAXAXAXAXAXAXAXAX",
"AXAXAXAXAXAXAXAXAXAXAXAXAXAXAXAXAXAXAXAXAXtX  8.AXAXAXAXAXAXAXAXAXAXAXAXAXAXAXAXAXrX> n D.D.U.`._ i.4.7XAXAXAXAXAXAXAXAXAXAXAXAX",
"AXAXAXAXAXAXAXAXAXAXAXAXAXAXAXAXAXAXAXAXAX9X  8.AXAXAXAXAXAXAXAXAXAXAXAXAXAXAXAXnX  f n W.@XN.e.R 5.I 8XAXAXAXAXAXAXAXAXAXAXAXAX",
"AXAXAXAXAXAXAXAXAXAXAXAXAXAXAXAXAXAXAXAXAX9X  8.AXAXAXAXAXAXAXAXAXAXAXAXVXjXjXAXMXo f ; n.n.t.T B.t.q. X].Y.@XOXhXAXAXAXAXAXAXAX",
"AXAXAXAXAXAXAXAXAXAXAXAXAXAXAXAXAXAXAXAXAXAX  f.AXAXAXAXAXAXAXAXAXAXAXAXAXsXY.$X$XoX2 h > H &Xs./.~.Q.U.S.s.NXAXAXAXAXAXAXAXAXAX",
"AXAXAXAXAXAXAXAXAXAXAXAXAXAXAXAXAXAXAXAXAXMX  r.AXAXAXAXAXAXAXAXAXAXAXAXAXAXjXOXL.`._ ] 5..X'.Q.^.E.!.J.E [ p.cXAXAXAXAXAXAXAXAX",
"AXAXAXAXAXAXAXAXAXAXAXAXAXAXAXAXAXAXAXAXAXAX7.r.AXAXAXAXAXAXAXAXAXAXAXAXAXAXaXP.@XK.XXK.K.+X+XQ.T.F.=.Z   ( ' 1 NXAXAXAXAXAXAXAX",
"AXAXAXAXAXAXAXAXAXAXAXAXAXAXAXAXAXAXAXAXAXAXAX  1.AXAXAXAXAXAXAXAXAXAXvXnX%Xc N.E.I.I.U.U.Q.H.C.H.F   f.tXo 0.u.H MXAXAXAXAXAXAX",
"AXAXAXAXAXAXAXAXAXAXAXAXAXAXAXAXAXAXAXAXAXAXAXs.=XqXAXAXAXAXAXAXAX,X,X3   . 6.#XP.V.=.=.B D %.L.B.W wXAXAXCX9.` { %XnXAXAXAXAXAX",
"AXAXAXAXAXAXAXAXAXAXAXAXAXAXAXAXAXAXAXAXAXAXAX}.=X_.>.{ ` ' ' ' ' 3   a o 4XAXVXv _ _ ] '.T.S.q.  uXAXAXAXAX! / 0./ > lXAXAXAXAX",
"AXAXAXAXAXAXAXAXAXAXAXAXAXAXAXAXAXAXAXAXAXAXAX[.{.q.;.0.' ;.` ( Q   j.g.MXAXAXlX: 9.0.t.G. X>.  eXAXAXAXAXAXAX( : y.' i.cXAXAXAX",
"AXAXAXAXAXAXAXAXAXAXAXAXAXAXAXAXAXAXAXAXAXAXAX  l / Q , : : :   7.zXAXAXAXAXAXxX: 5.t.@X[ 5.a 3XAXAXAXAXAXAXAXxXi.a y.O 7XAXAXAX",
"AXAXAXAXAXAXAXAXAXAXAXAXAXAXAXAXAXAXAXAXAXAXAXMXq - g.i.xXAXAXAXAXAXAXAXAXAXVX XH } F Q.>.9.: NXAXAXAXAXAXAXAXAX>X  ;.[ i.uXAXAX",
"AXAXAXAXAXAXAXAXAXAXAXAXAXAXAXAXAXAXAXAXAXAXAXAXZ X AXAXAXAXAXAXAXAXAXAXAXAXgXx.0.oX@X'.` } R G aXAXAXAXAXAXAXAX;X. ;.9.2 *XAXAX",
"AXAXAXAXAXAXAXAXAXAXAXAXAXAXAXAXAXAXAXAXAXAXAXAXB c AXAXAXAXAXAXAXAXAXAXAXAXgXn..X+XJ.R =.oXXX@XM.kXAXAXAXAXAXAX;X+ ) } H 5XAXAX",
"AXAXAXAXAXAXAXAXAXAXAXAXAXAXAXAXAXAXAXAXAXAXAXAXh M AXAXAXAXAXAXAXAXAXAXAXAXdXM.@XW.Q.A.W.~.~.F.M ,XAXAXAXAXAXAX;X  d.s.<.,XAXAX",
"AXAXAXAXAXAXAXAXAXAXAXAXAXAXAXAXAXAXAXAXAXAXAXAXN # AXAXAXAXAXAXAXAXAXAXAXlX0.C.(.Q.@X~.E.G.A j 5.  2XAXAXAXAXAX1X3.=X-X&X0XAXAX",
"AXAXAXAXAXAXAXAXAXAXAXAXAXAXAXAXAXAXAXAXAXAXAXAX    AXAXAXAXAXAXAXAXAXAXAX;Xx.(.W.~.W.T.T.z Y / ( y.K 3XAXAXAXNX=X_.[.}.&XfXAXAX",
"AXAXAXAXAXAXAXAXAXAXAXAXAXAXAXAXAXAXAXAXAXAXAXAXCX8.|.AXAXAXAXAXAXAXAXAXAX2Xx.R.W.E.D.S.G.L.=.4 ( ;.` i.eXAXAX6XmXdX}.}.1.6XAXAX",
"AXAXAXAXAXAXAXAXAXAXAXAXAXAXAXAXAXAXAXAXAXAXAXAXAXr.  AXAXAXAXAXAXAXAXAXAX7X  Z.I.D.S.( ^ H.C.C Q ~ { _ 1 u.VXAXAXAX6Xb |.mXAXAX",
"AXAXAXAXAXAXAXAXAXAXAXAXAXAXAXAXAXAXAXAXAXAXAXAXAXw.c AXAXAXAXAXAXAXAXAXAX2X  B.D.m.S.] ;.R Q.C.J z C *.e.N.).sXAXAXZXZXAXAXAXAX",
"AXAXAXAXAXAXAXAXAXAXAXAXAXAXAXAXAXAXAXAXAXAXAXAXAXr.X AXAXAXAXAXAXAXAXAXAX2Xo >.Q `.D.] >.[ J.~.H.H.@X~.U.].jXAXAXAXAXAXAXAXAXAX",
"AXAXAXAXAXAXAXAXAXAXAXAXAXAXAXAXAXAXAXAXAXAXAXAXAXr.  AXAXAXAXAXAXAXAXAXAX2X: 9.E t.R.] ;._ /.~.W.H.D B.D E pXAXAXAXAXAXAXAXAXAX",
"AXAXAXAXAXAXAXAXAXAXAXAXAXAXAXAXAXAXAXAXAXAXAXAXAX7.  AXAXAXAXAXAXAXAXAXAX2X  0._ `./.{ ;.Q C.Q.G.C H U } ;.2 xXAXAXAXAXAXAXAXAX",
"AXAXAXAXAXAXAXAXAXAXAXAXAXAXAXAXAXAXAXAXAXAXAXAXAXAXw.l.AXAXAXAXAXAXAXAXAX3X  >.E t.Q.{ ;.~ H F L.W.C.T ;.` y.  ZXAXAXAXAXAXAXAX",
"AXAXAXAXAXAXAXAXAXAXAXAXAXAXAXAXAXAXAXAXAXAXAXAXAXAXk.  AXAXAXAXAXAXAXAXAX2X  ;._ e.S.T Q J D G.E.T.B.T ^ :.:.y.;.tXAXAXAXAXAXAX",
"AXAXAXAXAXAXAXAXAXAXAXAXAXAXAXAXAXAXAXAXAXAXAXAXAXAXk.  AXAXAXAXAXAXAXAXAX3X  *._ e.D.&.=.H.!.V.A B J :.( ' ' ' :.2 a.MXAXAXAXAX",
"AXAXAXAXAXAXAXAXAXAXAXAXAXAXAXAXAXAXAXAXAXAXAXAXAXAXk.  AXAXAXAXAXAXAXAXAX2X  ( Q J C W.!.S.C J Y Q ( :.[ ;.:.' :.u.> ,XAXAXAXAX",
"AXAXAXAXAXAXAXAXAXAXAXAXAXAXAXAXAXAXAXAXAXAXAXAXAXAXf.  AXAXAXAXAXAXAXAXAX5X  ( V D G.G.D J T z z j ! ' ' [ ' ' :.' y.O 2XAXAXAX",
"AXAXAXAXAXAXAXAXAXAXAXAXAXAXAXAXAXAXAXAXAXAXAXAXAXAXyXN rXAXAXAXAXAXAXAXAX6XG J.E.T.V.! 4 z / / ) / / ( [ ;.[ :.[ ' ' 9._ 7XAXAX",
"AXAXAXAXAXAXAXAXAXAXAXAXAXAXAXAXAXAXAXAXAXAXAXAXAXAXAX3X  yXAXAXAXAXAXAXAXsX).R.S.C U ! :.` :.:.:.:.:.' ^ ^ ' / ` :.[ 0.1 ;XAXAX",
"AXAXAXAXAXAXAXAXAXAXAXAXAXAXAXAXAXAXAXAXAXAXAXAXAXAXAX4X  xXAXAXAXAXAXAXAX3X  *.Q T ;.( [ ` ( ` ` :.:.' / / ! j z / ` ' :.Q ;XAX",
"AXAXAXAXAXAXAXAXAXAXAXAXAXAXAXAXAXAXAXAXAXAXAXAXAXAXAX4X  zXAXAXAXAXAXAXAX3X  / ! ! s ! ! Q z j ^ / / / / / ! ! ! ! z ! / 3 7.9X"
};
