/* XPM */
static char *result[] = {
/* columns rows colors chars-per-pixel */
"64 64 59 1 ",
"  c #BAB44D",
". c #BCB654",
"X c #BFBA66",
"o c #BCB769",
"O c #BFBA68",
"+ c #C2BC5D",
"@ c #C1BC66",
"# c #C2BD6C",
"$ c #C4BF71",
"% c #CAC465",
"& c #C6C06C",
"* c #CAC46D",
"= c #C6C174",
"- c #C9C376",
"; c #CFC974",
": c #C7C279",
"> c #CAC57B",
", c #CEC97D",
"< c #D3CC75",
"1 c #D3CD7A",
"2 c #D8D177",
"3 c #D7D079",
"4 c #D9D278",
"5 c #C7C381",
"6 c #CBC680",
"7 c #CFCA81",
"8 c #CECA8A",
"9 c #D0C780",
"0 c #D1CC81",
"q c #D3CB8B",
"w c #D8D186",
"e c #D6D08A",
"r c #DCD689",
"t c #D4CE92",
"y c #D5D195",
"u c #D9D395",
"i c #DDD896",
"p c #D3D19A",
"a c #D9D49B",
"s c #E2DE9C",
"d c #D9D6A5",
"f c #DDD8A0",
"g c #DCDAAB",
"h c #E1DEB1",
"j c #E3E1BB",
"k c #E6E4C5",
"l c #E8E7C7",
"z c #E8E7CC",
"x c #ECEBCD",
"c c #EBEAD4",
"v c #ECEBDA",
"b c #F2F0D7",
"n c #F4F2DD",
"m c #F3F3E3",
"M c #F8F6E4",
"N c #F7F6E9",
"B c #F9F8EF",
"V c #FBFAF4",
"C c #FEFEFC",
/* pixels */
"VVVNMblhsr9>$:00,>>:OOXO:>>>>>:>>>:,0,&XX#=>>>#XX#,eeufhcmBVBBVC",
"CCVNnxjgiw9>$>>,,:>:=#O=>,,>>>,,>>>>,>=##$>>>:=#X#-70tahkbNVVVCC",
"CCVMcjgyq1,-####:,>::::>7777,><3,>>:&O=:>>>>>>>=$OO$>qtdhzmVVCCC",
"vcckgp86-==$###$:,>>>>,,03076,33;=:=O=:,>>;,>>>>$$oo$68tpgjzcvvv",
"5588=OO####$-:>:>>>,>>>,33,>707,=OO#:>>>:,13,>>>:::>>>>,,6q9885$",
" .@@@##$###$>>>,>>,66,6111>>00w,#X#=>6,11142,:>,91,>==>>-=$$$%@+",
"OOO#=>>>>::,:,>>:,100009,>:>70w,#O=>>,324443;:>>341:##:>,>>,33>$",
"OOX#>,>,11,6>:,97,:----==$:,,7,>==:>>>11<11,>>:,10,>$$$=,,>>11,6",
"#OO#=>>,13,>>,600,$@#O#@O#:,>>>>>>>>>>>>>>>>>>:>09,>>=##,9,>>>>>",
"=====$>-*->:,77,7,;*=$$$$=,,>>:>>><1>,>,1,>:>>====>>>>===->>>:$$",
">>>:##>>##>,9,,>>>34,>>>>,77,>,>>,33,==,33,>,:#OX#>>>>>>##->>:#O",
">>>>===>=$:,=-,7>>1,,>>>11,,7,,77,1,=##=,10,>>==:=:>>>>:==,90,=:",
">>>>,>,>,,>=##,,>>>>>>>,33,>77007,>=#O##=>,0>>>>>>,>>>>>>,,70,>>",
">,1<>><331=#===##$:>>>>>,,>>>,6>=##=====$##=>>>,1331>>>>>>=&==>>",
">,141,322<##>>##O$=>>>>>::>>>>,-=OO#>,>>#OX#-,>,3343,>>,,:#OO$=,",
">>,1111>*#==>>>=:=O#=>>>##->>>77>==>>>6>>=##>007,,,;>>700,>:=::>",
">>:>1<,=OO:6>>>,6>=&>,,:&#:>>>,>:>>>>>>=>=O#,0,>==>>,>,777::>,,,",
">>>>,,,:OO:,,>>,70,,77,:>:>>>>=###>>>-#@OOOO>>&#O=70w,&O>>&#:,34",
">>>>:::>&$>>:==>>,7777>>>67,:=$O##>,,>=#&&&=>==OO=>,,-==::===,<3",
">>>>##=>>:>>#OO##&>,,>>::,7,&O=>>>7077>>33,::,:>>:&OO&>7,:=:>>>,",
"===$O#>77,>:=###OO:,:>,6,,>:#$>>>>777,>,13,>>>>>:==OO=,77,7,,>=$",
"#X#OX#1007>>:>>=#O=>,,70w,&O=>>>>>>>>>>>>>>>>>6:##=>>>:,7000,:$O",
"##$=#==>77,,,77,==&===->>=$$>>>,<,>>,;>>>>>,>>=&O#=,,1>>,,>===$$",
">>>>>>##=7700077,=&OOOO#O#:,>>>,33,>33,>>>>:,:OOO#:,33,>>>#XX#:>",
"11,>>>=$$=>,000,>:===#OXX#;1,>:><1>>11>>:&=:::==->=,33,>>>=#$:=>",
"44,:>->=##=,0,,>>>>>,>OOX&34,>>>>>>>>>>=OXXO=,:,,0>,33,>>>>>>,>>",
"1,>>>,11-=>:==>>11>,77==O#;,,7>>,77,>>>>:==:>>>>--,0140,>>>,11,>",
">>>>>,33,>>>##=,33,>,7,=##:,09>>,707>>>>>>:>>>,:O&,0787,>>:,33>>",
">>>>:,,,>,11-=:,,,0,==:,<;>>,>=#===&#=>,,>>>:,3<>===,>==#=>,,,>>",
":>>>>>>>>,33,>>>=>,>&#>,43,>>=##XOOOO=10,>>>>>34,=OO==#OX#=:>>>>",
"#$=>700971,,,>=##O&=::,000,-$#=:=:=:=>13,:>:>>42-OOOO===OXO=:,>>",
"O$:,,,7,,,:::=OXO&O$=,7707,:##>>,,,,,,33>>>,,,<;&OO&##:>=#O&:>=-",
"=:>-=$&&#$#O##OO=:=>>>>>,,>>>>>,12431701,>60w,&OOO:=::>>::::>:=O",
",,,:OOO#O$O&#OO=>77,>,>>==>>:==-<3310777>>777,=&&*:,>,>>,,>,,:=O",
"43>>>>::>::::=OO,00000,:#$>=##O=>,,>>>>>>>>,,::><3,>>>>>>,>>>>:=",
"33,>::>>>,1,,>&==,7,,>>=#$>==#OO==>>>>>>>>>::::,33,::,6,==:>>:,,",
",:,:&O:,>,33,>>=##>>$OO#:>>>>:OX##>>6>>>>>,=$&:>>>>>>67,&O:,>>>>",
":===OO>76,11>>,:=$==$##$:,>>,:=$X##===>,>>==OO=,>>>>==;===>,7,>>",
"OXXOO&,700>>,>>>>>##:>>>>>>>>>,=#X#XO#:>,:OXXO=,>>5:#OO#:>700,,>",
"==#===6,;:,,,7,,-#XO:,01>>>>,776===#OO$=:=:===>>>>=&OO#::,7,>:$=",
":>>>>>,=#&>0000,#OX#:,<4,:>>0017>>>-&OO#=,>>>>>>>:#XX&:,:,:=&XOO",
">>>>,>>:>-=-,,>===;;,>-*=##=10====>,>>-;,7,777,>=#=:==11,:======",
">>>>>>>,0,$O>:#O=,31,=#@OOX=7,=XO#=>70000777,7,=##:,:,33,=&O:,:,",
"3,,::>119>=$&OO#>,11>>======,>====#$&==-70w7===&X#:,>>,,>::=>>>:",
"33,,>,33,>>>=OO#=>>>>>>>>>,>,>>>>>$#X#O#,07,=OOOO#=>:,>>>>>,>>>,",
",,,77001>:>>====$#O#>:>>>>>>11,>:>========:,==OOO@#=:>>>,>>:>>,3",
":,777707,>>>>>7>$O##>>,>>>>,33,:,,>>>>7>&O=,,:=O##O#:,>:::>,>>32",
":>>,,>,,31>>>,0,>:::>,31,>71,->,1<,>>>9,OO=,>:=:-:=->:&OO==,>>;,",
",>>>>,>>33,>>>,,>>=:>,11,>,7,>>,33,>,,,-##->,,,>>>76,:$#O&:>>>>>",
":>:>33,>>,,07>=#####=>,,>>>,777007>,7,&#=>:,31,>>,77>:::>:>>>>>>",
"7,,>;<=:=>7,==XXX@#=>,>:,,>>777777>>,>==,7>,1<>==>,77,7,>>>>>>>,",
"07,:&##O>,,:#OXXX#,00,>,33,:>,>,>,,=#=,097>>,>#OX#>,7001>>>>>>33",
">>==O$O===>>=#$=#=,000>><1,>>:>:::==XO,77,7,==#&#=>,>>>>,6,,>>13",
"&OOO:>,=##>>>>>:>>>>07,>>>>>>>>=OOOXO#:>>,7,##=>>>0,&@O#,w0,,>>>",
"#&O:>>6:#X$=>,>>>>>>7>==>>>>>>,,===#&=;,,:>-==>>>>,>=#$==>>-====",
">>6,>>,:#XO#=>>>>>>>>>##->>>>>90>:>>>,33,=##:>>>>>>>>>>:&O@OOOOO",
">>>>:>>>=$O#,,,>,,,:>===$=>>>>7,==>,>>,1,:OO:,:,1<>>,>>>;*OO&==$",
">>>>>>>>>-##,9,,44,>>>>=##:>>>>=##=>>>>>::##:,,,33,>:>>,3<&O:,>:",
">>>>11>>>:#O=::,147777,>==$#$$$#OO=,>>7,===:,77,1,>:>>>>,;=:>>>>",
">>>,33,:,>#OOO=,70000,>>>:$OOO#OO&>>>,0>#O=,770,>:>,>>,>>>,,>>>>",
"31>,33,;11=:=-,0,,,>=##=>>=======::,7,=&XO:,,,=&&=,70777,,77,>>>",
"43,>13>,33,>>>7,>>>:#OO#>>,>>>>,,>>>,,=OX=:,>:OOX#>0770,>:,,>:>>",
";,-,,;>>>,,:=#&=>>>::==>,077>,11>>>:====::>>>>:=OO&=>,6,$OO=&::,",
":>>>:>>>>>,=#XXO:>>>,,>,0009>,43,>,=XO:,>>>>>>,:&XO#:>>:OOXXXO:>"
};
