/* XPM */
static char *result[] = {
/* columns rows colors chars-per-pixel */
"64 64 220 2 ",
"   c black",
".  c #090400",
"X  c #17040A",
"o  c #000817",
"O  c #040617",
"+  c #140817",
"@  c #001016",
"#  c #260A16",
"$  c #2A0B16",
"%  c #2C0B1A",
"&  c #2C0713",
"*  c #340D1D",
"=  c #3A0E1D",
"-  c #310915",
";  c #36171A",
":  c #1C0026",
">  c #0A1D33",
",  c #2C0923",
"<  c #25052C",
"1  c #29062F",
"2  c #2E092C",
"3  c #270726",
"4  c #330C24",
"5  c #3B0E22",
"6  c #380B2D",
"7  c #3D1121",
"8  c #37192A",
"9  c #2B0631",
"0  c #2A0831",
"q  c #310636",
"w  c #300E37",
"e  c #350739",
"r  c #39063D",
"t  c #3B083E",
"y  c #2C1332",
"u  c #371833",
"i  c #2F1327",
"p  c #002530",
"a  c #1A263E",
"s  c #3C252C",
"d  c #2F263E",
"f  c #252A38",
"g  c #3E2332",
"h  c #32273E",
"j  c #31283F",
"k  c #3B2831",
"l  c #470B1A",
"z  c #6D111E",
"x  c #73121C",
"c  c #400E33",
"v  c #451C3B",
"b  c #531C32",
"n  c #5C1E37",
"m  c #4A162B",
"M  c #7F1C24",
"N  c #4F212D",
"B  c #452A36",
"V  c #44233C",
"C  c #452539",
"Z  c #512E3E",
"A  c #4B363E",
"S  c #602039",
"D  c #68383E",
"F  c #773C3B",
"G  c #67433D",
"H  c #7E4939",
"J  c #6A4E2D",
"K  c #000146",
"L  c #000A43",
"P  c #001A42",
"I  c #031943",
"U  c #3E0841",
"Y  c #3E0443",
"T  c #231847",
"R  c #012146",
"E  c #00224A",
"W  c #082744",
"Q  c #1C2542",
"!  c #162446",
"~  c #002A54",
"^  c #002E5A",
"/  c #032757",
"(  c #08315A",
")  c #1D3257",
"_  c #1E285D",
"`  c #252944",
"'  c #2A2943",
"]  c #242646",
"[  c #332B43",
"{  c #3B2D43",
"}  c #352F49",
"|  c #362B45",
" . c #2D324E",
".. c #3B334D",
"X. c #37324B",
"o. c #21365A",
"O. c #2A3859",
"+. c #283657",
"@. c #3C3652",
"#. c #3E3A56",
"$. c #3E3C5A",
"%. c #323754",
"&. c #00006D",
"*. c #25376A",
"=. c #420945",
"-. c #4A044D",
";. c #460949",
":. c #4C0A4E",
">. c #450746",
",. c #4B1749",
"<. c #4E0651",
"1. c #4E0A51",
"2. c #510B54",
"3. c #570B5A",
"4. c #4F1151",
"5. c #511B4F",
"6. c #452B43",
"7. c #582742",
"8. c #41354C",
"9. c #433242",
"0. c #5A3543",
"q. c #423B55",
"w. c #4C3E53",
"e. c #413D5A",
"r. c #483E5F",
"t. c #533A53",
"y. c #542256",
"u. c #6D344D",
"i. c #473E62",
"p. c #394247",
"a. c #45415D",
"s. c #49415D",
"d. c #564454",
"f. c #68464A",
"g. c #7B494B",
"h. c #624356",
"j. c #6E5051",
"k. c #774F52",
"l. c #4C4164",
"z. c #4D4074",
"x. c #5C4773",
"c. c #5A4876",
"v. c #56446D",
"b. c #68476A",
"n. c #624C78",
"m. c #6F5170",
"M. c #7A5476",
"N. c #714D7A",
"B. c #736F76",
"V. c #BC1E25",
"C. c #B2242A",
"Z. c #D32529",
"A. c #FA2525",
"S. c #B2571E",
"D. c #BE6116",
"F. c #834C29",
"G. c #8A4B36",
"H. c #8C4733",
"J. c #9A4F31",
"K. c #8D5538",
"L. c #9A5B33",
"P. c #955739",
"I. c #AA5B2D",
"U. c #B55C26",
"Y. c #AB5836",
"T. c #8E753A",
"R. c #BC6425",
"E. c #B5652C",
"W. c #B96C2B",
"Q. c #A56333",
"!. c #AB6434",
"~. c #AD6B38",
"^. c #B66B35",
"/. c #AA7139",
"(. c #BA7437",
"). c #BC7A27",
"_. c #C15D18",
"`. c #D47F0E",
"'. c #C66C1C",
"]. c #CC771D",
"[. c #D6791A",
"{. c #C46C23",
"}. c #CB6E24",
"|. c #C47126",
" X c #CE7926",
".X c #C47429",
"XX c #C87627",
"oX c #D37C24",
"OX c #D57C25",
"+X c #CA7935",
"@X c #81544C",
"#X c #8F5A4E",
"$X c #956C4E",
"%X c #B66949",
"&X c #875468",
"*X c #90596F",
"=X c #8C5B78",
"-X c #945C75",
";X c #96607E",
":X c #C36D4B",
">X c #AC8339",
",X c #B48A38",
"<X c #BA882E",
"1X c #DB8500",
"2X c #DC871E",
"3X c #D5910B",
"4X c #D59626",
"5X c #D28F2C",
"6X c #E4952A",
"7X c #D1A02B",
"8X c #E8A32C",
"9X c #654F80",
"0X c #925E81",
"qX c #976082",
"wX c #9C668D",
"eX c #A1688B",
"rX c #AD719C",
"tX c #979598",
"yX c #CBC8CB",
"uX c None",
/* pixels */
"uXuXuXuXuXuXuXuXuXuXuXuXuXuXuXuXuXuXuXuXuXuXuXuXuXuXuXuXuXuXuXuXuXuXuXuXuXuXuXuXuXuXuXuXuXuXuXuXuXuXuXuXuXuXuXuXuXuXuXuXuXuXuXuX",
"uXuXuXuXuXuXuXuXuXuXuXuXuXuXuXuXuXuXuXuXuXuXuXuXuXuXuXuXuXuXuXuXuXuXuXuXuXuXuXuXuXuXuXuXuXuXuXuXuXuXuXuXuXuXuXuXuXuXuXuXuXuXuXuX",
"uXuXuXuXuXuXuXuXuXuXuXuXuXuXuXuXuXuXuXuXuXuXuXuXuXuXuXuXuXuXuXuXuXuXuXuXuXuXuXuXuXuXuXuXuXuXuXuXuXuXuXuXuXuXuXuXuXuXuXuXuXuXuXuX",
"uXuXuXuXuXuXuXuXuXuXuXuXuXuXuXuXuXuXuXuXuXuXuXuXuXuXuXuXuXuXuXuXuXuXuXuXuXuXuXuXuXuXuXuXuXuXuXuXuXuXuXuXuXuXuXuXuXuXuXuXuXuXuXuX",
"uXuXuXuXuXuXuXuXuXuXuXuXuXuXuXuXuXuXuXuXuXuXuXuXuXuXuXuXuXuXuXuXuXuXuXuXuXuXuXuXuXuXuXuXuXuXuXuXuXuXuXuXuXuXuXuXuXuXuXuXuXuXuXuX",
"uXuXuXuXuXuXuXuXuXuXuXuXuXuXuXuXuXuXuXuXuXuXuXuXuXuXuXuXuXuXuXuXuXuXuXuX1.uXuXuXuXuX1.uXuXuXuXuXuXuXuXuXuXuXuXuXuXuXuXuXuXuXuXuX",
"uXuXuXuXuXuXuXuXuXuXuXuXuXuXuXuXuXuXuXuXuXuXuXuXuXuXuXuXuXuXuXuXuXuXuX>.9 uXuXuXuX1.uXuXuX=.uXuXuXuXuXuXuXuXuXuXuXuXuXuXuXuXuXuX",
"uXuXuXuXuXuXuXuXuXuXuXuXuXuXuXuXuXuXuXuXuXuXuXuXuXuXuXuXuXuXuXuXuXuXuXuXuXuXuXuXuXuXuXuX;.uXuXuXuXuXuXuXuXuXuXuXuXuXuXuXuXuXuXuX",
"uXuXuXuXuXuXuXuXuXuXuXuXuXuXuXuXuXuXuXuXuXuXuXuXuXuXuXuXuXuXuXuXuXuXuXuXuXuXuXuXuXuXuXuXuXuX;.uXuXuXuXuXuXuXuXuXuXuXuXuXuXuXuXuX",
"uXuXuXuXuXuXuXuXuXuXuXuXuXuXuXuXuXuXuXuXuXuXuXuXuXuXuXuXuXuXuXuXuXuXuXuXuXuXuXuXuXuXuXuX1.3.;.uXuXuXuXuX;.uXuXuXuXuXuXuXuXuXuXuX",
"uXuXuXuXuXuXuXuXuXuXuXuXuXuXuXuXuXuXuXuXuXuXuXuXuXuXuXuXuXuXuXuXuXuXuXuXuXuX1.uXuXuXuX:.:.q uXuXuXuXuX0 2.uXuXuXuXuXuXuXuXuXuXuX",
"uXuXuXuXuXuXuXuXuXuXuXuXuXuXuXuXuXuXuXuXuXuXuXuXuXuXuXuXuXuX:.uXuXuXuXuXuXuX;.uXuXuX:.U < uXuXuXuXuXuX0 ;.2.uXuXuXuXuXuXuXuXuXuX",
"uXuXuXuXuXuXuXuXuXuXuXuXuXuXuXuXuXuXuXuXuXuXuXuXuXuXuXuXuXuXuXuXuXuXuXuXuX2.2.q < 9 9 < 9 uXuXuXuXuXuX1 e :.uXuXuXuXuXuXuXuXuXuX",
"uXuXuXuXuXuXuXuXuXuXuXuXuXuXuXuXuXuXuXuXuXuXuXuXuXuXuXuXuXuXuXuXuXuXuXuXuX;.t < 9 9 1 9 9 < U 2.uXuXuXuX1 q uXuXuXuXuXuXuXuXuXuX",
"uXuXuXuXuXuXuXuXuXuXuXuXuXuXuXuXuXuXuXuXuXuXuXuXuXuXuXuXuXuXuXuXuXuXuXuXuX< 0 9 9 1 1 < 9 1 e ;.:.:.uXuX0 uXuXuXuXuXuXuXuXuXuXuX",
"uXuXuXuXuXuXuXuXuXuXuXuXuXuXuXuXuXuXuXuXuXuXuXuXuXuXuXuXuXuXuXuXuXuXuX1.;.U ;.t < 9 9 9 9 < q t :.3.:.uXuXuXq =.uXuXuXuXuXuXuXuX",
"uXuXuXuXuXuXuXuXuXuXuXuXuXuXuXuXuXuXuXuXuXuXuXuXuXuXuXuXuXuXuXuXuXuX1.2.1.:.U 9 g u 2 4 < 9 1 9 U :.3.U uXuXuX0 t :.uXuXuXuXuXuX",
"uXuXuXuXuXuXuXuXuXuXuXuXuXuXuXuXuXuXuXuXuXuXuXuXuXuXuXuXuX:.1.:.uX1.1.1.1.t : 1 8 l & 4 =.9 1 < < q t uXuXuXuXuXuXe t uXuXuXuXuX",
"uXuXuXuXuXuXuXuXuXuXuXuXuXuXuXuXuXuXuXuXuXuXuXuXuXuXuXuX2.2.1.uX:.2.:.1.U < 9 2 4 * s B 5.>.< 9 0 1 < uXuXuXuXuXuXuX< uXuXuXuXuX",
"uXuXuXuXuXuXuXuXuXuXuXuXuXuXuXuXuXuXuXuXuXuXuXuXuXuXuX1.2.t uXuX2.-.1.=.9 9 9 5 * $ V B B 4.Y 3 1 9 < ;.2.uXuXuXuXuXuXuXuXuXuXuX",
"uXuXuXuXuXuXuXuXuXuXuXuXuXuXuXuXuXuXuXuXuXuXuXuXuXuXuXuXe 1 uX9 4.y.:.;.3 1 4 5 $ 2 -.,.s B ,.=.1 < =.1.1.2.;.uXuXuXuXuXuXuXuXuX",
"uXuXuXuXuXuXuXuXuXuXuXuXuXuXuXuXuXuXuXuXuXuXuXuXuXuXuXuX9 9 1 u q   9 U e 2 5 5 * ;.:.:.s k V 2.;.q t :.1.2.2.< uXuXuXuXuXuXuXuX",
"uXuXuXuXuXuXuXuXuXuXuXuXuXuXuXuXuXuXuXuXuXuXuXuXuXuXuXuXuX9 w : d.tX: 1 w , * m = :.2.:.g k v <.2.t q :.>.=.U uXuXuXuXuXuXuXuXuX",
"uXuXuXuXuXuXuXuXuXuXuXuXuXuXuXuXuXuXuXuXuXuXuXuXuXuXuXuXuXuXy   B.yX< 1 y 1 % ; = 6 ;.C k g ;.1.=.1 < q 0 < < uXuXuXuXuXuXuXuXuX",
"uXuXuXuXuXuXuXuXuXuXuXuXuXuXuXuXuXuXuXuXuXuXuXuXuXuXuXuXuXuXuXuX-.r ;.< q ;.t X - = l 8 g ,.<.1.t < 9 9 uXuXuXuXuXuXuXuXuXuXuXuX",
"uXuXuXuXuXuXuXuXuXuXuXuXuXuXuXuXuXuXuXuXuXuXuXuXuXuXuXuXuXuXuX1.2.4.;.< t 2.2.C o + ; = c 1.1.=.< 9 9 1 uXuXuXuXuXuXuXuXuXuXuXuX",
"uXuXuXuXuXuXuXuXuXuXuXuXuXuXuXuXuXuXuXuXuXuXuXuXuXuXuXuXuXuXuX;.2.1.U 1 9 c 7.f M l + % * c ;.t < 9 1 uXuXuXuXuXuXuXuXuXuXuXuXuX",
"uXuXuXuXuXuXuXuXuXuXuXuXuXuXuXuXuXuXuXuXuXuXuXuXuXuXuXuXuXuXuX< U >.< 1 1 v f C.A.x o $ $ 5 < 1 9 1 uXuXuXuXuXuXuXuXuXuXuXuXuXuX",
"uXuXuXuXuXuXuXuXuXuXuXuXuXuXuXuXuXuXuXuXuXuXuXuXuXuXuXuXuXuXuXuX< 9 1 1 9 u p Z.A.x o % $ 4 0 1 9 uXuXuXuXuXuXuXuXuXuXuXuXuXuXuX",
"uXuXuXuXuXuXuXuXuXuXuXuXuXuXuXuXuXuXuXuXuXuXuXuXuXuXuXuXuXuXuXuXuX1 0 0 1 u s N V.z o % # 3 1 q 1 uXuXuXuXuXuXuXuXuXuXuXuXuXuXuX",
"uXuXuXuXuXuXuXuXuXuXuXuXuXuXuXuXuXuXx.c.n.c.c.v.uXuXuXuXuXuXuXuXuXuX1 9 9 0 8 8 O + $ # , 9 9 1 uXuXuXuXuXuXuXuXuXuXuXuXuXuXuXuX",
"uXuXuXuXuXuXuXuXuXuXuXuXuXuXuXuXuXx.9Xl.O.w.w.l.l.uXuXuXuXuXuXuXuXuXuXuX1 1 , - $ $ % , 9 < uXuXuXuXuXuXuXuXuXuXuXuXuXuXuXuXuXuX",
"uXuXuXuXuXuXuXuXuXuXuXuXuXuXuXuXuXc.l.@.g.U.S.f $.uXuXuXuXuXuXuXuXuXuXuXuXuXuX$ $ % < 1 uXuXuXuXuXuXuXuXuXuXuXuXuXuXuXuXuXuXuXuX",
"uXuXuXuXuXuXuXuXuXuXuXuXuXuXuXuXz.n.$.#.XX'.S.O { uXuXuXuXuXuXuXuXuXuXuXuXuXuX* 4 ; uXuXuXuXuXuXuXuXuXuXuXuXuXuXuXuXuXuXuXuXuXuX",
"uXuXuXuXuXuXuXuXuXuXuXuX7X7X3X%Xm.i.w.[ F.XXW.. ] &.uXuXuXuXuXuXuXuXuXuXuXuXuX% * 5 uXuXuXuXuXuXuXuXuXuXuXuXuXuXuXuXuXuXuXuXuXuX",
"uXuXuXuXuXuXuXuXuXuXuXuXuX1X%X%X X%X(.#XN.} ; O J ,X4X4X4XuXuXuXuXuXuXuXuXuXuX* * uXuXuXuXuXuXuXuXuXuXuXuXuXuXuXuXuXuXuXuXuXuXuX",
"uXuXuXuXuXuXuXuXuXuXuXuXuXuX*.o.Q.[.].+X#Xk.o./ j.5X8XuXuXuXuXuXuXuXuXuXuXuXuX7 * uXuXuXuXuXuXuXuXuXuXuXuXuXuXuXuXuXuXuXuXuXuXuX",
"uXuXuXuXuXuXuXuXuXuXuXuXuXn.q.' 0.D E.|.`.4X(.%X>X(.5XuXuXuXuXuXuXuXuXuXuXuXuX- % uXuXuXuXuXuXuXuXuXuXuXuXuXuXuXuXuXuXuXuXuXuXuX",
"uXuXuXuXuXuXuXuXuXuXuXuXi.$.@.h ` E H Q.P.E.}.'.D.].^.7. .e.uXuXuXuXuXuXuXuXu.7.uXuXuXuXuXuXuXuXuXuXuXuXuXuXuXuXuXuXuXuXuXuXuXuX",
"uXuXuXuXuXuXuXuXuXuXuXl.#.q.[ uXuXuXP Q.H.F.{ 6.0.{.^.K 8.q.$.e.uXuXuXuXuX=X-XwXuXuXuXuXuXuXuXuXuXuXuXuXuXuXuXuXuXuXuXuXuXuXuXuX",
"uXuXuXuXuXuXuXuXuXuXi.e...} uXuXuXuX{ P F :X!.( o.d.uXuX[ d X.X.e.e.i.r.$.h.-XwXuXuXuXuXuXuXuXuXuXuXuXuXuXuXuXuXuXuXuXuXuXuXuXuX",
"uXuXuXuXuXuXuXuXuXi.e.#.[ h uXuXuXuXuXA ! n.#X$X$.l.uXuXuXuXuXh | | @.X...%.t.u.uXuXuXuXuXuXuXuXuXuXuXuXuXuXuXuXuXuXuXuXuXuXuXuX",
"uXuXuXuXuXuXuXuXuX#.q.[ j uXuXuXuXuXuXuX..) k.].P _ $XuXuXuXuXuX[ [ d d [ [ i   uXuXuXuXuXuXuXuXuXuXuXuXuXuXuXuXuXuXuXuXuXuXuXuX",
"uXuXuXuXuXuXuXuXq.s.e.} ' uXuXuXuXuXuXT.` / w.W.,Xp./.uXuXuXuXuXuXuXuXuXuX4 l uXuXuXuXuXuXuXuXuXuXuXuXuXuXuXuXuXuXuXuXuXuXuXuXuX",
"uXuXuXuXuXuXuXuX$.%.Q [ | uXuXuXuXuX).6X<X>X..f.2X/.!.uXuXuXuXuXuXuXuXuXuXuXb uXuXuXuXuXuXuXuXuXuXuXuXuXuXuXuXuXuXuXuXuXuXuXuXuX",
"uXuXuXuXuXuXuXuX$.M.M.X.> uXuXuXuXuXT F XX2X|.Q. X X(.uXuXuXuXuXuXuXuXuXuXu.b uXuXuXuXuXuXuXuXuXuXuXuXuXuXuXuXuXuXuXuXuXuXuXuXuX",
"uXuXuXuXuXuXuXuXwXrXeX0Xb.uXuXuXuXq.r.W V J.XXoX XoX!.9.uXuXuXuXuXuXuXuXuXuX7 uXuXuXuXuXuXuXuXuXuXuXuXuXuXuXuXuXuXuXuXuXuXuXuXuX",
"uXuXuXuXuXuXuXuXwX-X&X&X-X-XuXuX$.e.e.9.W G '.'.XX2X[.P.uXuXuXuXuXuXuXuXuX* # uXuXuXuXuXuXuXuXuXuXuXuXuXuXuXuXuXuXuXuXuXuXuXuXuX",
"uXuXuXuXuXuXuXuX&X-X*XuXuXuXuX) a.q.8.' A XXG.H.R.{.I.7.uXuXuXuXuXuXuXuXuXN uXuXuXuXuXuXuXuXuXuXuXuXuXuXuXuXuXuXuXuXuXuXuXuXuXuX",
"uXuXuXuXuXuXuXuXuX&X&XuXuX1X+Xf.~ ` P Q W.f.^ h.D._.H.E uXuXuXuXuXuXuXuXuXS uXuXuXuXuXuXuXuXuXuXuXuXuXuXuXuXuXuXuXuXuXuXuXuXuXuX",
"uXuXuXuXuXuXuXuXuXuXuXuXuXuX X|.|..XK.~. Xd.o.g.I.0.0.} uXuXuXuXuXuXuXuXuXS uXuXuXuXuXuXuXuXuXuXuXuXuXuXuXuXuXuXuXuXuXuXuXuXuXuX",
"uXuXuXuXuXuXuXuXuXuXuXuXuXuX~ f.P.K.^.oXoXd.^ @X(.^ $.@.uXuXuXuXuXuXuXuXuX5 uXuXuXuXuXuXuXuXuXuXuXuXuXuXuXuXuXuXuXuXuXuXuXuXuXuX",
"uXuXuXuXuXuXuXuXuXuXuXuXuXq.l.%.P L H .X!.9.( @X^.o...{ uXuXuXuXuXuXuXuXuX% uXuXuXuXuXuXuXuXuXuXuXuXuXuXuXuXuXuXuXuXuXuXuXuXuXuX",
"uXuXuXuXuXuXuXuXuXuXuXuXuXa.q.q.! L.2XQ.I I %.@X~.o...[ uXuXuXuXuXuXuXuXb X uXuXuXuXuXuXuXuXuXuXuXuXuXuXuXuXuXuXuXuXuXuXuXuXuXuX",
"uXuXuXuXuXuXuXuXuXuXuXq.e.q.$...' D I.R.E.D K D Y.+...{ uXuXuXuXuXuXuXuXm uXuXuXuXuXuXuXuXuXuXuXuXuXuXuXuXuXuXuXuXuXuXuXuXuXuXuX",
"uXuXuXuXuXuXuXuXuXuX$.a.$.$.$.q.$.] Q d G.W.Q.P.u.[ j { uXuXuXuXuXuXuXuX* uXuXuXuXuXuXuXuXuXuXuXuXuXuXuXuXuXuXuXuXuXuXuXuXuXuXuX",
"uXuXuXuXuXuXuXuXuX$.e.#.$.#.q.#.$.X.h j R Z I.|.G P ! R uXuXuXuXuXuXuXuX5 uXuXuXuXuXuXuXuXuXuXuXuXuXuXuXuXuXuXuXuXuXuXuXuXuXuXuX",
"uXuXuXuXuXuXuXuX#.q.#.q.#.e.$.e.@.} [ [ { a > H R.W.L.f.uXuXuXuXuXuXuXuX* uXuXuXuXuXuXuXuXuXuXuXuXuXuXuXuXuXuXuXuXuXuXuXuXuXuXuX",
"uXuXuXuXuXuXuXuXe.e.e.$.#...#.} @.e.q.e.e.8.8.R 6.I.{.}.uXuXuXuXuXuXuX* # uXuXuXuXuXuXuXuXuXuXuXuXuXuXuXuXuXuXuXuXuXuXuXuXuXuXuX",
"uXuXuXuXuXuXuX..#.$.#.@.[ [ } X.#.e.e.@.@.#.#.q. .! 6.6.uXuXuXuXuXuXuX5 # uXuXuXuXuXuXuXuXuXuXuXuXuXuXuXuXuXuXuXuXuXuXuXuXuXuXuX",
"uXuXuXuXuXuXuXh d } h d h [ [ X.} } } [ d d d [ h [ ' f uXuXuXuXuXuXuX% uXuXuXuXuXuXuXuXuXuXuXuXuXuXuXuXuXuXuXuXuXuXuXuXuXuXuXuX",
"uXuXuXuXuXuXuXuXuXuXuXuXuXuXuXuXuXuXuXuXuXuXuXuXuXuXuXuXuXuXuXuXuXuXuXuXuXuXuXuXuXuXuXuXuXuXuXuXuXuXuXuXuXuXuXuXuXuXuXuXuXuXuXuX",
"uXuXuXuXuXuXuXuXuXuXuXuXuXuXuXuXuXuXuXuXuXuXuXuXuXuXuXuXuXuXuXuXuXuXuXuXuXuXuXuXuXuXuXuXuXuXuXuXuXuXuXuXuXuXuXuXuXuXuXuXuXuXuXuX",
"uXuXuXuXuXuXuXuXuXuXuXuXuXuXuXuXuXuXuXuXuXuXuXuXuXuXuXuXuXuXuXuXuXuXuXuXuXuXuXuXuXuXuXuXuXuXuXuXuXuXuXuXuXuXuXuXuXuXuXuXuXuXuXuX"
};
